<?xml version="1.0" encoding="UTF-8" standalone="no"?>
<!-- Created with Inkscape (http://www.inkscape.org/) -->

<svg
   version="1.1"
   id="svg1"
   width="1034.3921"
   height="458.0885"
   viewBox="0 0 1034.3921 458.0885"
   sodipodi:docname="logo-dark.svg"
   inkscape:version="1.2.2 (b0a8486541, 2022-12-01)"
   xmlns:inkscape="http://www.inkscape.org/namespaces/inkscape"
   xmlns:sodipodi="http://sodipodi.sourceforge.net/DTD/sodipodi-0.dtd"
   xmlns="http://www.w3.org/2000/svg"
   xmlns:svg="http://www.w3.org/2000/svg">
  <defs
     id="defs6">
    <filter
       y="-0.013145177"
       height="1.0262904"
       inkscape:menu-tooltip="Darkens the edge with an inner blur and adds a flexible glow"
       inkscape:menu="Shadows and Glows"
       inkscape:label="Dark and Glow"
       style="color-interpolation-filters:sRGB"
       id="filter968"
       x="-0.018201893"
       width="1.0364038">
      <feGaussianBlur
         stdDeviation="5"
         result="result6"
         id="feGaussianBlur958" />
      <feComposite
         result="result8"
         in="SourceGraphic"
         operator="atop"
         in2="result6"
         id="feComposite960" />
      <feComposite
         result="result9"
         operator="over"
         in2="SourceAlpha"
         in="result8"
         id="feComposite962" />
      <feColorMatrix
         values="1 0 0 0 0 0 1 0 0 0 0 0 1 0 0 0 0 0 1 0 "
         result="result10"
         id="feColorMatrix964" />
      <feBlend
         in="result10"
         mode="normal"
         in2="result6"
         id="feBlend966" />
    </filter>
    <filter
       style="color-interpolation-filters:sRGB"
       inkscape:label="Drop Shadow"
       id="filter3959"
       x="-0.040030203"
       y="-0.029436639"
       width="1.0875516"
       height="1.0619161">
      <feFlood
         flood-opacity="0.498039"
         flood-color="rgb(74,74,74)"
         result="flood"
         id="feFlood3949" />
      <feComposite
         in="flood"
         in2="SourceGraphic"
         operator="in"
         result="composite1"
         id="feComposite3951" />
      <feGaussianBlur
         in="composite1"
         stdDeviation="11.0322"
         result="blur"
         id="feGaussianBlur3953" />
      <feOffset
         dx="4.9549"
         dy="2.73693"
         result="offset"
         id="feOffset3955" />
      <feComposite
         in="SourceGraphic"
         in2="offset"
         operator="over"
         result="composite2"
         id="feComposite3957" />
    </filter>
    <filter
       style="color-interpolation-filters:sRGB;"
       inkscape:label="Drop Shadow"
       id="filter2122"
       x="-0.013875317"
       y="-0.059268371"
       width="1.0297794"
       height="1.1081426">
      <feFlood
         flood-opacity="0.498039"
         flood-color="rgb(0,0,0)"
         result="flood"
         id="feFlood2112" />
      <feComposite
         in="flood"
         in2="SourceGraphic"
         operator="in"
         result="composite1"
         id="feComposite2114" />
      <feGaussianBlur
         in="composite1"
         stdDeviation="3.13474"
         result="blur"
         id="feGaussianBlur2116" />
      <feOffset
         dx="1.1"
         dy="-1.6"
         result="offset"
         id="feOffset2118" />
      <feComposite
         in="SourceGraphic"
         in2="offset"
         operator="over"
         result="composite2"
         id="feComposite2120" />
    </filter>
    <filter
       style="color-interpolation-filters:sRGB;"
       inkscape:label="Drop Shadow"
       id="filter2134"
       x="-0.026091948"
       y="-0.064445139"
       width="1.0559988"
       height="1.1175883">
      <feFlood
         flood-opacity="0.498039"
         flood-color="rgb(0,0,0)"
         result="flood"
         id="feFlood2124" />
      <feComposite
         in="flood"
         in2="SourceGraphic"
         operator="in"
         result="composite1"
         id="feComposite2126" />
      <feGaussianBlur
         in="composite1"
         stdDeviation="3.13474"
         result="blur"
         id="feGaussianBlur2128" />
      <feOffset
         dx="1.1"
         dy="-1.6"
         result="offset"
         id="feOffset2130" />
      <feComposite
         in="SourceGraphic"
         in2="offset"
         operator="over"
         result="composite2"
         id="feComposite2132" />
    </filter>
  </defs>
  <sodipodi:namedview
     id="namedview4"
     pagecolor="#ffffff"
     bordercolor="#000000"
     borderopacity="0.25"
     inkscape:showpageshadow="2"
     inkscape:pageopacity="0.0"
     inkscape:pagecheckerboard="0"
     inkscape:deskcolor="#d1d1d1"
     showgrid="false"
     inkscape:zoom="0.91541025"
     inkscape:cx="341.9232"
     inkscape:cy="345.20042"
     inkscape:window-width="1886"
     inkscape:window-height="1080"
     inkscape:window-x="34"
     inkscape:window-y="0"
     inkscape:window-maximized="1"
     inkscape:current-layer="g8" />
  <g
     inkscape:groupmode="layer"
     inkscape:label="Image"
     id="g8"
     transform="translate(-54.999583,-189.49958)">
    <text
       xml:space="preserve"
       style="font-style:normal;font-variant:normal;font-weight:normal;font-stretch:normal;font-size:148.706px;font-family:'MesloLGS NF';-inkscape-font-specification:'MesloLGS NF';fill:#e5e5e5;fill-opacity:1;fill-rule:nonzero;stroke:none;stroke-width:4.64707;stroke-linecap:round;stroke-linejoin:round;stroke-opacity:1;filter:url(#filter2134)"
       x="504.25235"
       y="582.89978"
       id="text565-5"
       inkscape:label="fuyin"><tspan
         sodipodi:role="line"
         id="tspan563-9"
         x="504.25235"
         y="582.89978"
         style="font-style:normal;font-variant:normal;font-weight:bold;font-stretch:normal;font-size:148.706px;font-family:'MesloLGS NF';-inkscape-font-specification:'MesloLGS NF Bold';fill:#e5e5e5;fill-opacity:1;fill-rule:nonzero;stroke:none;stroke-width:4.64707;stroke-opacity:1">福音</tspan></text>
    <text
       xml:space="preserve"
       style="font-style:normal;font-variant:normal;font-weight:normal;font-stretch:normal;font-size:164.108px;font-family:'MesloLGS NF';-inkscape-font-specification:'MesloLGS NF';fill:#e5e5e5;fill-opacity:1;fill-rule:nonzero;stroke:none;stroke-width:5.12836;stroke-linecap:round;stroke-linejoin:round;filter:url(#filter2122)"
       x="500.5899"
       y="394.44373"
       id="text565"
       inkscape:label="fooyin"><tspan
         sodipodi:role="line"
         id="tspan563"
         x="500.5899"
         y="394.44373"
         style="font-style:normal;font-variant:normal;font-weight:bold;font-stretch:normal;font-size:164.108px;font-family:Metropolis;-inkscape-font-specification:'Metropolis Bold';fill:#e5e5e5;fill-opacity:1;fill-rule:nonzero;stroke:none;stroke-width:5.12836;stroke-opacity:1">Fooyin</tspan></text>
    <path
       style="fill:#e5e5e5;fill-opacity:1;stroke-width:7.63027697;filter:url(#filter3959);stroke-dasharray:none"
       d="m 448.31917,964.97186 c -2.54339,-5.50343 -6.87067,-19.91961 -9.61636,-32.03588 -2.96723,-13.09519 -9.73028,-25.07731 -31.29952,-38.95077 -21.56924,-13.87346 -36.27221,-52.14628 -17.07114,-66.82366 19.20107,-14.67738 -44.51202,-159.2688 -99.91986,-224.92287 -55.40784,-65.65407 -59.77944,-62.10159 -29.31224,-65.40923 30.4672,-3.30764 8.18251,-73.9668 -35.95928,-140.87308 -44.14179,-66.90628 -47.36862,-76.0602 -41.79981,-72.83025 5.56881,3.22995 14.486,8.48825 47.21143,28.11775 32.72543,19.6295 32.34347,39.37043 103.06316,-90.28567 70.71969,-129.6561 70.74067,-123.64324 66.97276,-48.21732 -3.76791,75.42592 5.35355,117.38692 28.50574,122.87806 23.15219,5.49114 30.36228,4.67246 55.29888,-150.36584 24.9366,-155.038298 30.27762,-155.038298 55.21415,0 24.93653,155.0383 32.1467,155.85698 55.2989,150.36584 23.1522,-5.49114 32.27361,-47.45214 28.50573,-122.87806 -3.76788,-75.42592 -3.74693,-81.43878 66.97282,48.21732 70.71974,129.6561 70.33775,109.91517 103.06315,90.28567 32.7254,-19.6295 41.64251,-24.8878 47.21132,-28.11775 5.56881,-3.22995 2.342,5.92397 -41.79976,72.83025 -44.14176,66.90628 -66.42644,137.56544 -35.95925,140.87308 30.46719,3.30764 26.09576,-0.24484 -29.3121,65.40923 -55.40786,65.65407 -119.24361,210.15187 -99.92003,224.92287 19.32358,14.771 5.94235,52.02141 -17.79512,67.28933 -23.73747,15.26792 -28.37869,25.06302 -31.72209,44.11664 -5.88041,33.51262 -16.60178,39.34106 -24.13561,13.12075 -6.56086,-22.83385 -7.11219,-23.04579 -30.67951,-11.79529 -13.89042,6.6308 -20.97307,6.53899 -35.63927,-0.46225 -21.1837,-10.11257 -20.22614,-10.57972 -31.84712,15.53478 -6.07034,13.64133 -10.37782,16.82703 -13.52997,10.00635 z M 425.8816,555.62409 c -56.4131,-81.88637 -61.00436,-82.6631 -61.00436,-30.76362 0,51.89948 -7.30265,43.54316 49.75444,74.48366 57.05709,30.9405 67.66302,38.16633 11.24992,-43.72004 z m 191.56754,39.19509 c 59.78945,-32.67218 41.45298,-18.3032 41.45298,-70.05689 0,-51.75369 -1.74919,-55.15205 -60.27018,29.80172 -58.52099,84.95377 -40.97225,72.92735 18.8172,40.25517 z M 511.99993,779.05045 c 17.28537,0.0193 33.80219,35.15676 62.61415,45.94439 28.81196,10.78763 20.53911,-22.85393 2.49403,-38.15339 -18.04508,-15.29946 -39.60581,-53.28934 -65.10818,-52.93519 -28.45103,0.39511 -51.18696,44.33947 -71.67485,61.05979 -20.48789,16.72031 -2.6307,42.01259 18.82065,31.09606 21.45135,-10.91653 34.02941,-47.03272 52.8542,-47.01166 z"
       id="path200"
       transform="matrix(0.6317481,0,0,0.47959432,-51.651707,169.11822)"
       sodipodi:nodetypes="sczzzzzzzzzzzzzzzzzzzzzzsssssszzzzzzzzszzazzs" />
  </g>
</svg>
