<?xml version="1.0" encoding="UTF-8" standalone="no"?>
<svg
   width="48"
   height="48"
   fill="currentColor"
   viewBox="0 0 48 48"
   version="1.1"
   id="svg13"
   sodipodi:docname="volume-med.svg"
   inkscape:version="1.2.2 (b0a8486541, 2022-12-01)"
   xmlns:inkscape="http://www.inkscape.org/namespaces/inkscape"
   xmlns:sodipodi="http://sodipodi.sourceforge.net/DTD/sodipodi-0.dtd"
   xmlns="http://www.w3.org/2000/svg"
   xmlns:svg="http://www.w3.org/2000/svg">
  <defs
     id="defs8" />
  <sodipodi:namedview
     id="namedview6"
     pagecolor="#ffffff"
     bordercolor="#000000"
     borderopacity="0.25"
     inkscape:showpageshadow="2"
     inkscape:pageopacity="0.0"
     inkscape:pagecheckerboard="0"
     inkscape:deskcolor="#d1d1d1"
     showgrid="false"
     inkscape:zoom="14.355167"
     inkscape:cx="18.878221"
     inkscape:cy="25.217402"
     inkscape:window-width="1886"
     inkscape:window-height="1080"
     inkscape:window-x="34"
     inkscape:window-y="0"
     inkscape:window-maximized="1"
     inkscape:current-layer="svg4" />
  <path
     style="fill:#464546;fill-opacity:1;stroke-width:4.27103"
     d="M 42.913548,24 A 19.159981,19.159982 0 0 1 37.284282,37.590517 L 34.264647,34.570883 A 14.901733,14.901733 0 0 0 38.642482,24 14.906006,14.906006 0 0 0 34.264647,13.429118 l 3.019635,-3.019635 A 19.159981,19.159982 0 0 1 42.913548,24 Z"
     id="path558"
     inkscape:label="path3" />
  <path
     style="fill:#464546;fill-opacity:1;stroke-width:3.11214"
     d="m 35.536852,24 a 13.960988,13.960988 0 0 1 -4.101773,9.902777 L 29.234805,31.702504 A 10.8582,10.8582 0 0 0 32.424732,24 10.861311,10.861311 0 0 0 29.234805,16.297497 l 2.200274,-2.200274 A 13.960988,13.960988 0 0 1 35.536852,24 Z"
     id="path518"
     inkscape:label="path2" />
  <path
     style="fill:#464546;fill-opacity:1;stroke-width:3.55611"
     d="M 26.423144,9.775528 A 1.778059,1.778059 0 0 0 23.535577,8.388642 L 15.13247,15.109705 H 6.8644955 a 1.778059,1.778059 0 0 0 -1.7780596,1.77806 v 14.224472 a 1.778059,1.778059 0 0 0 1.7780596,1.778058 H 15.13247 l 8.403107,6.721063 a 1.778059,1.778059 0 0 0 2.887567,-1.386886 z"
     id="path2"
     inkscape:label="path1" />
</svg>
