<svg height="48" viewBox="0 0 48 48" width="48" xmlns="http://www.w3.org/2000/svg">
    <g fill="#464546">
        <path d="m39.225202 24a13.960988 13.960988 0 0 1 -4.101773 9.902777l-2.200274-2.200273a10.8582 10.8582 0 0 0 3.189927-7.702504 10.861311 10.861311 0 0 0 -3.189927-7.702503l2.200274-2.200274a13.960988 13.960988 0 0 1 4.101773 9.902777z" stroke-width="3.11214"/>
        <path d="m30.111494 9.775528a1.778059 1.778059 0 0 0 -2.887567-1.386886l-8.403107 6.721063h-8.267974a1.778059 1.778059 0 0 0 -1.77806 1.77806v14.224472a1.778059 1.778059 0 0 0 1.77806 1.778058h8.267974l8.403107 6.721063a1.778059 1.778059 0 0 0 2.887567-1.386886z" stroke-width="3.55611"/>
    </g>
</svg>
