<svg height="48" viewBox="0 0 48 48" width="48" xmlns="http://www.w3.org/2000/svg">
    <g fill="#464546" stroke-width=".478877">
        <path d="m44.828498 15.628551c.69641.694652.69641 1.822773 0 2.517425l-5.856213 5.852657 5.856212 5.852656c1.678283 1.678282-.839141 4.195707-2.517424 2.517425l-5.852657-5.856212-5.852657 5.856212c-1.678282 1.67778-4.195707-.839645-2.517425-2.517425l5.856213-5.852656-5.856213-5.852657c-1.678785-1.678283.83864-4.195707 2.517425-2.517425l5.852657 5.856213 5.852657-5.856213c.694652-.696411 1.822772-.696411 2.517425 0z"/>
        <path d="m22.945883 8.1758356c.614647.296095 1.005636.91781 1.006259 1.600058v28.4454774c-.0021 1.488819-1.723816 2.315742-2.887216 1.386717l-8.402082-6.720244h-8.2669672c-.9818752 0-1.7778423-.795967-1.7778424-1.777842v-14.222739c.0000001-.981875.7959672-1.777842 1.7778424-1.777842h8.2669672l8.402082-6.7202444c.533856-.426753 1.265086-.50969 1.880957-.213341z"/>
    </g>
</svg>
