<svg height="48" viewBox="0 0 48 48" width="48" xmlns="http://www.w3.org/2000/svg">
    <path d="m9.5096415 22.852304q0 1.435145-1.0184918 2.453638-1.0184915 1.018492-2.453639 1.018492-1.4814425 0-2.4999342-1.018492-.9721967-1.018493-.9721967-2.453638v-1.620329q0-2.083278.7870163-3.888786.7870164-1.805508 2.1295737-3.148065 1.3888523-1.388853 3.1943603-2.175869 1.8055079-.787017 3.8887859-.787017h23.101243v-2.5462288q0-.555541.27777-.6481312.277772-.1388849.694427.2314755l5.786885 5.7868845q.37036.416656.37036.694427 0 .27777-.37036.694426l-5.786885 5.786884q-.416655.370361-.694427.27777-.27777-.138889-.27777-.694426v-2.638819h-23.101243q-1.296262 0-2.175868.925902-.8796065.879606-.8796065 2.129573zm32.4991425-1.157378q1.435147 0 2.407346 1.018491 1.01849.972196 1.01849 2.45364v1.574032q0 2.083279-.787015 3.888787-.787017 1.805507-2.129574 3.19436-1.342558 1.342557-3.148066 2.129574-1.805507.787015-3.888787.787015h-23.147537v2.54623q0 .55554-.27777.694427-.277771.09259-.648132-.277772l-5.7868842-5.786883q-.3703605-.370362-.3703605-.648132 0-.324066.3703605-.694427l5.7868842-5.786885q.370361-.416655.648132-.27777.27777.09259.27777.648132v2.638819h23.147537q1.249968 0 2.129574-.879607.925902-.879606.925902-2.175868v-1.574032q0-1.481444.972196-2.45364 1.018493-1.018491 2.499934-1.018491z" fill="#464546" stroke-width="4.49517"/>
</svg>
