<svg height="48" viewBox="0 0 48 48" width="48" xmlns="http://www.w3.org/2000/svg">
    <path d="m17.325715 7.9999999q.868571 0 1.462858.5942858.594285.5942856.594285 1.4628573v27.885713q0 .868572-.594285 1.462857-.594287.594287-1.462858.594287h-5.211428q-.868572 0-1.462857-.594287-.594286-.594285-.594286-1.462857v-27.885713q0-.8685717.594286-1.4628573.594285-.5942858 1.462857-.5942858zm18.514284 0q.868572 0 1.462857.5942858.64.5942856.64 1.4628573v27.885713q0 .868572-.64 1.462857-.594285.594287-1.462857.594287h-5.165715q-.868571 0-1.462855-.594287-.594287-.594285-.594287-1.462857v-27.885713q0-.8685717.594287-1.4628573.594284-.5942858 1.462855-.5942858z" fill="#464546" stroke-width="4.43878"/>
</svg>
