<svg height="48" viewBox="0 0 48 48" width="48" xmlns="http://www.w3.org/2000/svg">
    <path d="m15.753701 12.705556h20.121776v-2.217831q0-.48389.241945-.5645383.241945-.1209726.604863.2016213l5.040525 5.080849q.322594.322593.322594.564539 0 .241945-.322594.604863l-5.040525 5.040525q-.362918.322593-.604863.241945-.241945-.120973-.241945-.604863v-2.29848h-20.121776q-1.129077 0-1.895237.806484-.76616.76616-.76616 1.854914v1.411347q0 .08065-.04032.201621 0 .08065 0 .201621-1.330699-.443567-2.661397-.443567-1.6936168 0-3.2662606.685512-.040324-.201621-.080648-.322594 0-.161297 0-.322593v-1.411347q0-1.814589.6855114-3.387233.6855114-1.572644 1.8549132-2.742046 1.2097264-1.209726 2.7823694-1.895237 1.572644-.685512 3.387233-.685512zm2.822694 16.170005h17.137785q1.088753 0 1.854913-.76616.806484-.76616.806484-1.895238v-1.371022q0-1.290375.846808-2.137183.887133-.887132 2.177507-.887132 1.25005 0 2.096859.887132.887132.846808.887132 2.137183v1.371022q0 1.814589-.685511 3.387233-.685512 1.572644-1.854914 2.78237-1.169401 1.169402-2.742045 1.854913-1.572644.685511-3.387233.685511h-17.581351q.806484-1.693616.806484-3.588853 0-1.290375-.362918-2.459776zm-8.185812-4.355014q1.411347 0 2.621073.564539 1.25005.524214 2.177506 1.451671.927457.927457 1.451672 2.177507.564538 1.209726.564538 2.621073 0 1.411347-.564538 2.661397-.524215 1.209726-1.451672 2.137182-.927456.927457-2.177506 1.451672-1.209726.524214-2.621073.524214-1.4113474 0-2.6613976-.524214-1.209726-.524215-2.1371826-1.451672-.9274566-.927456-1.4516712-2.137182-.5242146-1.25005-.5242146-2.661397 0-1.411347.5242146-2.621073.5242146-1.25005 1.4516712-2.177507.9274566-.927457 2.1371826-1.451671 1.2500502-.564539 2.6613976-.564539zm1.088753 2.742046h-1.25005q-.2419454.685511-.967781 1.290374-.6855114.48389-1.3306986.76616v1.411347q.5645388-.201621 1.0484292-.483891.5242146-.282269.9677808-.725835v5.887333h1.5323196z" fill="#464546" fill-rule="evenodd"/>
</svg>
