<?xml version="1.0" encoding="UTF-8" standalone="no"?>
<svg
   width="48"
   height="48"
   fill="currentColor"
   viewBox="0 0 48 48"
   version="1.1"
   id="svg9"
   sodipodi:docname="shuffle.svg"
   inkscape:version="1.2.2 (b0a8486541, 2022-12-01)"
   xmlns:inkscape="http://www.inkscape.org/namespaces/inkscape"
   xmlns:sodipodi="http://sodipodi.sourceforge.net/DTD/sodipodi-0.dtd"
   xmlns="http://www.w3.org/2000/svg"
   xmlns:svg="http://www.w3.org/2000/svg">
  <defs
     id="defs8" />
  <sodipodi:namedview
     id="namedview6"
     pagecolor="#ffffff"
     bordercolor="#000000"
     borderopacity="0.25"
     inkscape:showpageshadow="2"
     inkscape:pageopacity="0.0"
     inkscape:pagecheckerboard="0"
     inkscape:deskcolor="#d1d1d1"
     showgrid="false"
     inkscape:zoom="5.4551149"
     inkscape:cx="14.665136"
     inkscape:cy="47.111748"
     inkscape:window-width="1886"
     inkscape:window-height="1080"
     inkscape:window-x="34"
     inkscape:window-y="0"
     inkscape:window-maximized="1"
     inkscape:current-layer="svg4" />
  <path
     id="path"
     style="fill:#464546;fill-opacity:1;stroke-width:4.43782"
     d="M 3.8671728,11.142184 H 12.2768 q 1.234021,0 2.285224,0.502749 1.096908,0.457045 1.873885,1.051203 0.914089,0.685568 1.691066,1.508249 0.228522,0.319931 0.548454,0.685567 0.274225,0.319931 0.594159,0.776976 0.365635,0.457045 0.822678,0.959795 -1.096906,1.32543 -2.285222,2.742268 -1.142613,1.416841 -2.193816,2.650862 -1.051204,-1.279727 -1.371135,-1.508249 -0.50275,-0.457044 -0.868386,-0.868385 -0.365635,-0.457044 -0.776976,-0.776976 -0.41134,-0.319931 -1.005499,-0.502749 -0.548454,-0.228523 -1.416839,-0.228523 H 3.8671728 q -0.5484538,0 -0.9597942,-0.365637 -0.365636,-0.41134 -0.365636,-0.959793 v -4.341927 q 0,-0.548454 0.365636,-0.91409 0.4113404,-0.41134 0.9597942,-0.41134 z M 27.816324,25.950439 q 0.411341,0.548453 0.685568,0.91409 0.274226,0.319932 0.365635,0.411341 0.319932,0.365635 0.594159,0.776976 0.319932,0.41134 0.776976,0.776975 0.50275,0.365637 1.279727,0.594159 0.822679,0.228522 2.102407,0.228522 h 4.707561 v -2.559451 q 0,-0.548453 0.274228,-0.639862 0.274227,-0.09142 0.639862,0.274225 l 5.80447,5.804472 q 0.411341,0.365635 0.411341,0.685567 0,0.274227 -0.411341,0.685568 l -5.80447,5.80447 q -0.365635,0.365635 -0.639862,0.274228 -0.274228,-0.137113 -0.274228,-0.685569 V 36.7367 h -7.084195 q -1.416841,0 -2.513748,-0.457047 -1.051203,-0.457044 -1.828179,-1.051203 -0.868386,-0.639863 -1.553953,-1.508247 -0.274227,-0.274228 -0.548453,-0.639863 -0.274228,-0.319931 -0.639863,-0.731272 -0.319931,-0.457044 -0.776977,-1.0055 1.051203,-1.325429 2.193815,-2.696563 1.188317,-1.416841 2.23952,-2.696566 z M 3.8671728,29.835321 h 6.3072202 q 0.868385,0 1.416839,-0.182811 0.594159,-0.228522 1.005499,-0.548453 0.411341,-0.319932 0.776976,-0.731272 0.365636,-0.457044 0.868386,-0.914091 0.137113,-0.137112 0.685567,-0.776975 0.594159,-0.639863 1.41684,-1.599657 0.822681,-0.959794 1.782475,-2.148112 1.005498,-1.188316 2.010996,-2.376632 2.330927,-2.833679 5.210311,-6.307221 0.685567,-0.822689 1.553953,-1.508256 0.776976,-0.548454 1.828179,-1.005499 1.096907,-0.502749 2.513748,-0.502749 h 7.084195 V 8.6741412 q 0,-0.5484543 0.274228,-0.6398631 0.274227,-0.1371129 0.639862,0.2742269 l 5.80447,5.804471 q 0.411341,0.365636 0.411341,0.685567 0,0.274227 -0.411341,0.639863 l -5.80447,5.80447 q -0.365635,0.41134 -0.639862,0.319931 -0.274228,-0.137113 -0.274228,-0.685566 v -2.559453 h -4.707561 q -1.279728,0 -2.102407,0.228524 -0.776977,0.228522 -1.279727,0.594157 -0.457044,0.365637 -0.776976,0.776978 -0.274227,0.41134 -0.594159,0.776975 -0.137113,0.137113 -0.639862,0.776976 -0.50275,0.639865 -1.279726,1.599659 -0.776975,0.959794 -1.73677,2.102406 -0.959796,1.142613 -1.91959,2.330929 -2.285223,2.787973 -5.164604,6.261514 -0.776978,0.868387 -1.691066,1.553953 -0.776977,0.594159 -1.873885,1.051204 -1.051203,0.457046 -2.285225,0.457046 H 3.8671726 q -0.5484538,0 -0.9597942,-0.365637 -0.365636,-0.411341 -0.365636,-0.959794 v -4.341926 q 0,-0.548456 0.365636,-0.914091 0.4113404,-0.41134 0.9597944,-0.41134 z" />
</svg>
