<?xml version="1.0" encoding="UTF-8" standalone="no"?>
<svg
   width="48"
   height="48"
   fill="currentColor"
   viewBox="0 0 48 48"
   version="1.1"
   id="svg4"
   sodipodi:docname="pause.svg"
   inkscape:version="1.2.2 (b0a8486541, 2022-12-01)"
   xmlns:inkscape="http://www.inkscape.org/namespaces/inkscape"
   xmlns:sodipodi="http://sodipodi.sourceforge.net/DTD/sodipodi-0.dtd"
   xmlns="http://www.w3.org/2000/svg"
   xmlns:svg="http://www.w3.org/2000/svg">
  <defs
     id="defs8" />
  <sodipodi:namedview
     id="namedview6"
     pagecolor="#ffffff"
     bordercolor="#000000"
     borderopacity="0.25"
     inkscape:showpageshadow="2"
     inkscape:pageopacity="0.0"
     inkscape:pagecheckerboard="0"
     inkscape:deskcolor="#d1d1d1"
     showgrid="false"
     inkscape:zoom="6.5775216"
     inkscape:cx="27.061865"
     inkscape:cy="55.035927"
     inkscape:window-width="1886"
     inkscape:window-height="1080"
     inkscape:window-x="34"
     inkscape:window-y="0"
     inkscape:window-maximized="1"
     inkscape:current-layer="svg4" />
  <path
     id="path"
     style="fill:#464546;fill-opacity:1;stroke-width:4.43878"
     d="m 17.325715,7.9999999 q 0.868571,0 1.462858,0.5942858 0.594285,0.5942856 0.594285,1.4628573 v 27.885713 q 0,0.868572 -0.594285,1.462857 Q 18.194286,40 17.325715,40 H 12.114287 Q 11.245715,40 10.65143,39.405713 10.057144,38.811428 10.057144,37.942856 V 10.057143 q 0,-0.8685717 0.594286,-1.4628573 0.594285,-0.5942858 1.462857,-0.5942858 z m 18.514284,0 q 0.868572,0 1.462857,0.5942858 0.64,0.5942856 0.64,1.4628573 v 27.885713 q 0,0.868572 -0.64,1.462857 Q 36.708571,40 35.839999,40 h -5.165715 q -0.868571,0 -1.462855,-0.594287 -0.594287,-0.594285 -0.594287,-1.462857 V 10.057143 q 0,-0.8685717 0.594287,-1.4628573 0.594284,-0.5942858 1.462855,-0.5942858 z" />
</svg>
