<svg height="48" viewBox="0 0 48 48" width="48" xmlns="http://www.w3.org/2000/svg">
    <g fill="#464546" transform="translate(-2.8)">
        <path d="m8.4 39.2q-.9.6-1.5.4-.6-.2-.6-1v-29.2q0-.8.6-1 .6-.2 1.5.4l20.8 13.7q1.5 1 0 2z"/>
        <path d="m34.3 31.3v-2.1q0-2.3.8-3.8.8-1.4 2.7-2.8l2.3-1.7q1.3-1 1.3-2.4 0-1.3-.9-2.1-.9-.8-2.5-.8-1.8 0-2.9 1.1-1 1.1-1.1 3h-5.6q.1-4.1 2.7-6.5 2.6-2.5 7.1-2.5 4.1 0 6.6 2.2 2.5 2.1 2.5 5.6 0 2.5-1.1 4.2-1.1 1.8-3.6 3.6l-2.1 1.5q-1.1.8-1.4 1.6-.3.8-.3 2.7zm-.3 8.3v-5.8h6v5.8z"/>
    </g>
</svg>
