<?xml version="1.0" encoding="UTF-8" standalone="no"?>
<svg
   width="48"
   height="48"
   fill="currentColor"
   viewBox="0 0 48 48"
   version="1.1"
   id="svg4"
   sodipodi:docname="settings.svg"
   inkscape:version="1.2.2 (b0a8486541, 2022-12-01)"
   xmlns:inkscape="http://www.inkscape.org/namespaces/inkscape"
   xmlns:sodipodi="http://sodipodi.sourceforge.net/DTD/sodipodi-0.dtd"
   xmlns="http://www.w3.org/2000/svg"
   xmlns:svg="http://www.w3.org/2000/svg">
  <defs
     id="defs10" />
  <sodipodi:namedview
     id="namedview8"
     pagecolor="#ffffff"
     bordercolor="#000000"
     borderopacity="0.25"
     inkscape:showpageshadow="2"
     inkscape:pageopacity="0.0"
     inkscape:pagecheckerboard="0"
     inkscape:deskcolor="#d1d1d1"
     showgrid="false"
     inkscape:zoom="10.252438"
     inkscape:cx="22.628763"
     inkscape:cy="30.529323"
     inkscape:window-width="1886"
     inkscape:window-height="1080"
     inkscape:window-x="34"
     inkscape:window-y="0"
     inkscape:window-maximized="1"
     inkscape:current-layer="svg4" />
  <path
     id="path1544"
     style="fill:#464546;fill-opacity:1;stroke:#464546;stroke-width:1.9565;stroke-opacity:1"
     inkscape:label="path1"
     d="m 23.999994,2.4782509 a 3.9130445,3.9129576 0 0 0 -3.91388,3.9137933 v 0.332329 a 3.2282617,3.2281901 0 0 1 -1.955569,2.955257 H 17.97399 a 3.2282617,3.2281901 0 0 1 -3.562318,-0.645432 l -0.115355,-0.118097 a 3.9130445,3.9129576 0 0 0 -5.5371116,0 3.9130445,3.9129576 0 0 0 0,5.5369878 l 0.118111,0.115355 a 3.2282617,3.2281901 0 0 1 0.645449,3.562239 3.2282617,3.2281901 0 0 1 -2.955324,2.112075 h -0.175781 a 3.9130445,3.9129576 0 0 0 -3.9138798,3.913793 3.9130445,3.9129576 0 0 0 3.9138798,3.913793 h 0.332335 a 3.2282617,3.2281901 0 0 1 2.955324,1.955524 3.2282617,3.2281901 0 0 1 -0.645449,3.562239 l -0.118111,0.115355 a 3.9130445,3.9129576 0 0 0 0,5.536988 3.9130445,3.9129576 0 0 0 5.5371116,0 l 0.115354,-0.118097 a 3.2282617,3.2281901 0 0 1 3.562318,-0.645434 3.2282617,3.2281901 0 0 1 2.112124,2.955257 v 0.17578 a 3.9130445,3.9129576 0 0 0 3.913881,3.913793 3.9130445,3.9129576 0 0 0 3.913879,-3.913793 v -0.332329 a 3.2282617,3.2281901 0 0 1 1.955569,-2.955258 3.2282617,3.2281901 0 0 1 3.562318,0.64543 l 0.115354,0.118097 a 3.9130445,3.9129576 0 0 0 5.537112,0 3.9130445,3.9129576 0 0 0 0,-5.536988 l -0.118097,-0.115354 a 3.2282617,3.2281901 0 0 1 -0.645446,-3.562241 3.2282617,3.2281901 0 0 1 2.955323,-1.955524 h 0.175781 A 3.9130445,3.9129576 0 0 0 45.522219,23.999993 3.9130445,3.9129576 0 0 0 41.608336,20.0862 h -0.332337 a 3.2282617,3.2281901 0 0 1 -2.955322,-1.955522 v -0.156552 a 3.2282617,3.2281901 0 0 1 0.645447,-3.562237 l 0.118097,-0.115355 a 3.9130445,3.9129576 0 0 0 0,-5.5369878 3.9130445,3.9129576 0 0 0 -5.53711,0 l -0.115355,0.118097 a 3.2282617,3.2281901 0 0 1 -3.562312,0.645436 3.2282617,3.2281901 0 0 1 -1.955569,-2.955258 V 6.3920442 A 3.9130445,3.9129576 0 0 0 23.999994,2.4782509 Z m 0,15.6524271 a 5.8695667,5.8694365 0 0 1 0.461426,0.01922 5.8695667,5.8694365 0 0 1 0.455932,0.05219 5.8695667,5.8694365 0 0 1 0.453189,0.09063 5.8695667,5.8694365 0 0 1 0.442198,0.126337 5.8695667,5.8694365 0 0 1 0.433957,0.159299 5.8695667,5.8694365 0 0 1 0.417482,0.192255 5.8695667,5.8694365 0 0 1 0.403747,0.225217 5.8695667,5.8694365 0 0 1 0.381779,0.255425 5.8695667,5.8694365 0 0 1 0.362547,0.285639 5.8695667,5.8694365 0 0 1 0.337829,0.313103 5.8695667,5.8694365 0 0 1 0.313112,0.337824 5.8695667,5.8694365 0 0 1 0.285643,0.362538 5.8695667,5.8694365 0 0 1 0.255432,0.381767 5.8695667,5.8694365 0 0 1 0.225222,0.40374 5.8695667,5.8694365 0 0 1 0.192258,0.417472 5.8695667,5.8694365 0 0 1 0.159303,0.433949 5.8695667,5.8694365 0 0 1 0.126337,0.44219 5.8695667,5.8694365 0 0 1 0.09063,0.453177 5.8695667,5.8694365 0 0 1 0.05217,0.455921 5.8695667,5.8694365 0 0 1 0.01922,0.461418 5.8695667,5.8694365 0 0 1 -0.148318,1.307344 5.8695667,5.8694365 0 0 1 -0.433958,1.238682 5.8695667,5.8694365 0 0 1 -0.697635,1.11234 5.8695667,5.8694365 0 0 1 -0.93109,0.931071 5.8695667,5.8694365 0 0 1 -1.112365,0.697616 5.8695667,5.8694365 0 0 1 -1.23871,0.433949 5.8695667,5.8694365 0 0 1 -1.307361,0.148318 5.8695667,5.8694365 0 0 1 -1.307374,-0.148313 5.8695667,5.8694365 0 0 1 -1.238709,-0.433949 5.8695667,5.8694365 0 0 1 -1.112366,-0.697617 5.8695667,5.8694365 0 0 1 -0.931091,-0.93107 5.8695667,5.8694365 0 0 1 -0.697632,-1.112342 5.8695667,5.8694365 0 0 1 -0.433961,-1.238681 5.8695667,5.8694365 0 0 1 -0.148314,-1.307344 5.8695667,5.8694365 0 0 1 0.148314,-1.307344 5.8695667,5.8694365 0 0 1 0.433961,-1.238683 5.8695667,5.8694365 0 0 1 0.697632,-1.112341 5.8695667,5.8694365 0 0 1 0.931091,-0.931071 5.8695667,5.8694365 0 0 1 1.112366,-0.697617 5.8695667,5.8694365 0 0 1 1.238709,-0.43395 5.8695667,5.8694365 0 0 1 1.307374,-0.148312 z" />
</svg>
