<svg height="48" viewBox="0 0 48 48" width="48" xmlns="http://www.w3.org/2000/svg">
    <g fill="none" stroke="#464546" stroke-width="3.55556">
        <path d="m9.7777778 14.519111a4.7413333 4.7413333 0 0 1 4.7413332-4.7413332h18.961778a4.7413333 4.7413333 0 0 1 4.741333 4.7413332v18.961778a4.7413333 4.7413333 0 0 1 -4.741333 4.741333h-18.961778a4.7413333 4.7413333 0 0 1 -4.7413332-4.741333z"/>
        <path d="m18.666667 30.222222v.444445c0 1.226666.995555 2.222222 2.222222 2.222222 1.262222 0 2.318222-.956445 2.442667-2.211556l1.336888-13.354666a2.4551111 2.4551111 0 0 1 2.442667-2.211556c1.226667 0 2.222222.995556 2.222222 2.222222v.444445"/>
        <path d="m18.666667 24h10.666666"/>
    </g>
</svg>
