<?xml version="1.0" encoding="UTF-8" standalone="no"?>
<svg
   width="48"
   height="48"
   fill="currentColor"
   viewBox="0 0 48 48"
   version="1.1"
   id="svg6"
   sodipodi:docname="script-function.svg"
   inkscape:version="1.3 (0e150ed6c4, 2023-07-21)"
   xmlns:inkscape="http://www.inkscape.org/namespaces/inkscape"
   xmlns:sodipodi="http://sodipodi.sourceforge.net/DTD/sodipodi-0.dtd"
   xmlns="http://www.w3.org/2000/svg"
   xmlns:svg="http://www.w3.org/2000/svg">
  <defs
     id="defs8" />
  <sodipodi:namedview
     id="namedview6"
     pagecolor="#ffffff"
     bordercolor="#000000"
     borderopacity="0.25"
     inkscape:showpageshadow="2"
     inkscape:pageopacity="0.0"
     inkscape:pagecheckerboard="0"
     inkscape:deskcolor="#d1d1d1"
     showgrid="false"
     inkscape:zoom="6.3111814"
     inkscape:cx="28.758483"
     inkscape:cy="34.145746"
     inkscape:window-width="930"
     inkscape:window-height="500"
     inkscape:window-x="20"
     inkscape:window-y="560"
     inkscape:window-maximized="1"
     inkscape:current-layer="svg6" />
  <path
     d="m 9.7777778,9.7777778 m 0,4.7413332 A 4.7413333,4.7413333 0 0 1 14.519111,9.7777778 h 18.961778 a 4.7413333,4.7413333 0 0 1 4.741333,4.7413332 v 18.961778 a 4.7413333,4.7413333 0 0 1 -4.741333,4.741333 H 14.519111 A 4.7413333,4.7413333 0 0 1 9.7777778,33.480889 Z"
     id="path2"
     style="stroke-width:3.55556;fill-opacity:1;stroke:#464546;stroke-opacity:1;fill:none" />
  <path
     d="m 18.666667,30.222222 v 0.444445 c 0,1.226666 0.995555,2.222222 2.222222,2.222222 1.262222,0 2.318222,-0.956445 2.442667,-2.211556 l 1.336888,-13.354666 a 2.4551111,2.4551111 0 0 1 2.442667,-2.211556 c 1.226667,0 2.222222,0.995556 2.222222,2.222222 v 0.444445"
     id="path3"
     style="stroke-width:3.55556;fill-opacity:1;stroke:#464546;stroke-opacity:1;fill:none" />
  <path
     d="M 18.666667,24 H 29.333333"
     id="path4"
     style="stroke-width:3.55556;fill-opacity:1;stroke:#464546;stroke-opacity:1;fill:none" />
</svg>
