<svg height="48" viewBox="0 0 48 48" width="48" xmlns="http://www.w3.org/2000/svg">
    <path d="m34.92088 11.367055q3.476008 2.645915 5.34371 6.433204 1.867704 3.735408 1.867704 8.041503 0 3.73541-1.45266 7.055776-1.400774 3.320358-3.89105 5.810629-2.438391 2.438394-5.758755 3.891055-3.268481 1.400778-7.00389 1.400778-3.735407 0-7.05577-1.400778-3.320363-1.452661-5.810636-3.891055-2.4383915-2.490271-3.8910495-5.810629-1.400778-3.320366-1.400778-7.055776 0-4.306095 1.867704-8.041503 1.867704-3.787289 5.3437085-6.433204.830091-.622568 1.867705-.466925 1.037612.103763 1.608301.985732.622568.881972.466926 1.867704-.103762.985733-.933852 1.660181-2.490272 1.867706-3.83917 4.61738-1.348897 2.749677-1.348897 5.810635 0 2.749679 1.037613 5.136186 1.037614 2.386512 2.801556 4.150458 1.763943 1.763944 4.150454 2.801556 2.386512 1.037613 5.136185 1.037613 2.697796 0 5.084307-1.037613 2.386513-1.037612 4.150452-2.801556 1.763942-1.763946 2.801556-4.150458 1.037615-2.386507 1.037615-5.136186 0-3.060958-1.348897-5.810635-1.348897-2.749674-3.839171-4.61738-.830089-.674448-.985732-1.660181-.103762-.985732.518805-1.867704.57069-.88197 1.608304-.985732 1.037612-.15564 1.867702.466925zm-10.894941 16.08301q-1.037613 0-1.815824-.72633-.726327-.72633-.726327-1.763943v-18.469519q0-1.037614.726327-1.763943.778211-.72633 1.815824-.72633 1.037615 0 1.76394.72633.726331.726329.726331 1.763943v18.469519q0 1.037613-.726331 1.763943-.726325.72633-1.76394.72633z" fill="#bebebe" stroke-width="2.49441"/>
</svg>
