<?xml version="1.0" encoding="UTF-8" standalone="no"?>
<svg
   width="48"
   height="48"
   fill="currentColor"
   viewBox="0 0 48 48"
   version="1.1"
   id="svg18"
   sodipodi:docname="category-library.svg"
   inkscape:version="1.2.2 (b0a8486541, 2022-12-01)"
   xmlns:inkscape="http://www.inkscape.org/namespaces/inkscape"
   xmlns:sodipodi="http://sodipodi.sourceforge.net/DTD/sodipodi-0.dtd"
   xmlns="http://www.w3.org/2000/svg"
   xmlns:svg="http://www.w3.org/2000/svg">
  <defs
     id="defs4389" />
  <sodipodi:namedview
     id="namedview4387"
     pagecolor="#ffffff"
     bordercolor="#000000"
     borderopacity="0.25"
     inkscape:showpageshadow="2"
     inkscape:pageopacity="0.0"
     inkscape:pagecheckerboard="0"
     inkscape:deskcolor="#d1d1d1"
     showgrid="false"
     inkscape:zoom="8.8575582"
     inkscape:cx="15.354119"
     inkscape:cy="17.950771"
     inkscape:window-width="1886"
     inkscape:window-height="1080"
     inkscape:window-x="34"
     inkscape:window-y="0"
     inkscape:window-maximized="1"
     inkscape:current-layer="g6163" />
  <g
     id="g6163"
     transform="translate(-0.43755743)">
    <path
       d="m 4.8877991,4.1223181 m 0,2.4847112 A 2.4847101,2.4847101 0 0 1 7.3725103,4.1223181 h 4.9694207 a 2.4847101,2.4847101 0 0 1 2.48471,2.4847112 V 41.392971 a 2.4847101,2.4847101 0 0 1 -2.48471,2.484711 H 7.3725103 A 2.4847101,2.4847101 0 0 1 4.8877991,41.392971 Z"
       id="path4371"
       style="fill:none;stroke:#b3b3b3;stroke-width:4.96943;stroke-opacity:1" />
    <path
       d="m 14.826641,4.1223181 m 0,2.4847112 A 2.4847101,2.4847101 0 0 1 17.31135,4.1223181 h 4.969421 a 2.4847101,2.4847101 0 0 1 2.48471,2.4847112 V 41.392971 a 2.4847101,2.4847101 0 0 1 -2.48471,2.484711 H 17.31135 a 2.4847101,2.4847101 0 0 1 -2.484709,-2.484711 z"
       id="path4373"
       style="fill:none;stroke:#b3b3b3;stroke-width:4.96943;stroke-opacity:1" />
    <path
       d="M 4.8877991,14.06116 H 14.826641"
       id="path4375"
       style="stroke:#b3b3b3;stroke-width:4.96943;stroke-opacity:1" />
    <path
       d="m 14.826641,33.93884 h 9.93884"
       id="path4377"
       style="stroke:#b3b3b3;stroke-width:4.96943;stroke-opacity:1" />
    <path
       d="m 26.760704,5.5137563 5.426607,-1.3168961 c 1.396408,-0.3354363 2.815177,0.4720952 3.185399,1.8188078 l 9.181003,33.339841 a 2.5344044,2.5344044 0 0 1 -1.575306,3.028861 l -0.330466,0.101874 -5.426607,1.316896 c -1.396407,0.335436 -2.815177,-0.472095 -3.185398,-1.818808 L 24.854931,8.6444911 a 2.5344044,2.5344044 0 0 1 1.575306,-3.0288615 z"
       id="path4379"
       style="fill:none;stroke:#b3b3b3;stroke-width:4.96943;stroke-opacity:1" />
    <path
       d="m 27.250192,16.545869 9.93884,-2.484709"
       id="path4381"
       style="stroke:#b3b3b3;stroke-width:4.96943;stroke-opacity:1" />
    <path
       d="M 32.219612,33.93884 41.96713,31.503825"
       id="path4383"
       style="stroke:#b3b3b3;stroke-width:4.96943;stroke-opacity:1" />
  </g>
</svg>
