<?xml version="1.0" encoding="UTF-8" standalone="no"?>
<svg
   width="48"
   height="48"
   fill="currentColor"
   viewBox="0 0 48 48"
   version="1.1"
   id="svg16"
   sodipodi:docname="quit.svg"
   inkscape:version="1.2.2 (b0a8486541, 2022-12-01)"
   xmlns:inkscape="http://www.inkscape.org/namespaces/inkscape"
   xmlns:sodipodi="http://sodipodi.sourceforge.net/DTD/sodipodi-0.dtd"
   xmlns="http://www.w3.org/2000/svg"
   xmlns:svg="http://www.w3.org/2000/svg">
  <defs
     id="defs8" />
  <sodipodi:namedview
     id="namedview6"
     pagecolor="#ffffff"
     bordercolor="#000000"
     borderopacity="0.25"
     inkscape:showpageshadow="2"
     inkscape:pageopacity="0.0"
     inkscape:pagecheckerboard="0"
     inkscape:deskcolor="#d1d1d1"
     showgrid="false"
     inkscape:zoom="5.4551149"
     inkscape:cx="-4.2162265"
     inkscape:cy="25.480673"
     inkscape:window-width="1886"
     inkscape:window-height="1080"
     inkscape:window-x="34"
     inkscape:window-y="0"
     inkscape:window-maximized="1"
     inkscape:current-layer="svg4" />
  <path
     id="path"
     style="fill:#b3b3b3;fill-opacity:1;stroke-width:2.49441"
     d="m 34.92088,11.367055 q 3.476008,2.645915 5.34371,6.433204 1.867704,3.735408 1.867704,8.041503 0,3.73541 -1.45266,7.055776 -1.400774,3.320358 -3.89105,5.810629 -2.438391,2.438394 -5.758755,3.891055 Q 27.761348,44 24.025939,44 q -3.735407,0 -7.05577,-1.400778 -3.320363,-1.452661 -5.810636,-3.891055 -2.4383915,-2.490271 -3.8910495,-5.810629 -1.400778,-3.320366 -1.400778,-7.055776 0,-4.306095 1.867704,-8.041503 1.867704,-3.787289 5.3437085,-6.433204 0.830091,-0.622568 1.867705,-0.466925 1.037612,0.103763 1.608301,0.985732 0.622568,0.881972 0.466926,1.867704 -0.103762,0.985733 -0.933852,1.660181 -2.490272,1.867706 -3.83917,4.61738 -1.348897,2.749677 -1.348897,5.810635 0,2.749679 1.037613,5.136186 1.037614,2.386512 2.801556,4.150458 1.763943,1.763944 4.150454,2.801556 2.386512,1.037613 5.136185,1.037613 2.697796,0 5.084307,-1.037613 2.386513,-1.037612 4.150452,-2.801556 1.763942,-1.763946 2.801556,-4.150458 1.037615,-2.386507 1.037615,-5.136186 0,-3.060958 -1.348897,-5.810635 -1.348897,-2.749674 -3.839171,-4.61738 -0.830089,-0.674448 -0.985732,-1.660181 -0.103762,-0.985732 0.518805,-1.867704 0.57069,-0.88197 1.608304,-0.985732 1.037612,-0.15564 1.867702,0.466925 z m -10.894941,16.08301 q -1.037613,0 -1.815824,-0.72633 -0.726327,-0.72633 -0.726327,-1.763943 V 6.490273 q 0,-1.037614 0.726327,-1.763943 Q 22.988326,4 24.025939,4 q 1.037615,0 1.76394,0.72633 0.726331,0.726329 0.726331,1.763943 v 18.469519 q 0,1.037613 -0.726331,1.763943 -0.726325,0.72633 -1.76394,0.72633 z" />
</svg>
