<?xml version="1.0" encoding="UTF-8" standalone="no"?>
<svg
   width="48"
   height="48"
   fill="currentColor"
   viewBox="0 0 48 48"
   version="1.1"
   id="svg18"
   sodipodi:docname="category-general.svg"
   inkscape:version="1.2.2 (b0a8486541, 2022-12-01)"
   xmlns:inkscape="http://www.inkscape.org/namespaces/inkscape"
   xmlns:sodipodi="http://sodipodi.sourceforge.net/DTD/sodipodi-0.dtd"
   xmlns="http://www.w3.org/2000/svg"
   xmlns:svg="http://www.w3.org/2000/svg">
  <defs
     id="defs158" />
  <sodipodi:namedview
     id="namedview156"
     pagecolor="#ffffff"
     bordercolor="#000000"
     borderopacity="0.25"
     inkscape:showpageshadow="2"
     inkscape:pageopacity="0.0"
     inkscape:pagecheckerboard="0"
     inkscape:deskcolor="#d1d1d1"
     showgrid="false"
     inkscape:zoom="10.628509"
     inkscape:cx="16.935583"
     inkscape:cy="18.346882"
     inkscape:window-width="1886"
     inkscape:window-height="1080"
     inkscape:window-x="34"
     inkscape:window-y="0"
     inkscape:window-maximized="1"
     inkscape:current-layer="g320" />
  <g
     id="g320">
    <path
       d="M 6.5573815,14.994044 H 15.563337 V 24 H 6.5573815 Z"
       id="path136"
       style="fill:none;stroke:#b3b3b3;stroke-width:2.25148;stroke-opacity:1"
       transform="matrix(1.1036585,0,0,1.1036585,-3.1161093,-2.4878033)" />
    <path
       d="M 11.06036,5.9880878 V 14.994044"
       id="path138"
       style="stroke:#b3b3b3;stroke-width:2.25148;stroke-opacity:1"
       transform="matrix(1.1036585,0,0,1.1036585,-3.1161093,-2.4878033)" />
    <path
       d="M 11.06036,24 V 42.011911"
       id="path140"
       style="stroke:#b3b3b3;stroke-width:2.25148;stroke-opacity:1"
       transform="matrix(1.1036585,0,0,1.1036585,-3.1161093,-2.4878033)" />
    <path
       d="m 20.066315,28.502977 h 9.005955 v 9.005956 h -9.005955 z"
       id="path142"
       style="fill:none;stroke:#b3b3b3;stroke-width:2.25148;stroke-opacity:1"
       transform="matrix(1.1036585,0,0,1.1036585,-3.1161093,-2.4878033)" />
    <path
       d="M 24.569293,5.9880878 V 28.502977"
       id="path144"
       style="stroke:#b3b3b3;stroke-width:2.25148;stroke-opacity:1"
       transform="matrix(1.1036585,0,0,1.1036585,-3.1161093,-2.4878033)" />
    <path
       d="m 24.569293,37.508933 v 4.502978"
       id="path146"
       style="stroke:#b3b3b3;stroke-width:2.25148;stroke-opacity:1"
       transform="matrix(1.1036585,0,0,1.1036585,-3.1161093,-2.4878033)" />
    <path
       d="m 33.575249,8.2395768 h 9.005956 v 9.0059562 h -9.005956 z"
       id="path148"
       style="fill:none;stroke:#b3b3b3;stroke-width:2.25148;stroke-opacity:1"
       transform="matrix(1.1036585,0,0,1.1036585,-3.1161093,-2.4878033)" />
    <path
       d="m 38.078227,5.9880878 v 2.251489"
       id="path150"
       style="stroke:#b3b3b3;stroke-width:2.25148;stroke-opacity:1"
       transform="matrix(1.1036585,0,0,1.1036585,-3.1161093,-2.4878033)" />
    <path
       d="M 38.078227,17.245533 V 42.011911"
       id="path152"
       style="stroke:#b3b3b3;stroke-width:2.25148;stroke-opacity:1"
       transform="matrix(1.1036585,0,0,1.1036585,-3.1161093,-2.4878033)" />
  </g>
</svg>
