<svg height="48" viewBox="0 0 48 48" width="48" xmlns="http://www.w3.org/2000/svg">
    <g fill="#bebebe">
        <path d="m46.589171 24a22.188502 27.138754 0 0 1 -6.519057 19.25l-3.496924-4.27709a17.257164 21.107242 0 0 0 5.069812-14.97291 17.262111 21.113293 0 0 0 -5.069812-14.972911l3.496924-4.277089a22.188502 27.138754 0 0 1 6.519057 19.25z" stroke-width="5.46963"/>
        <path d="m39.237923 24a19.159981 19.159982 0 0 1 -5.629266 13.590517l-3.019635-3.019634a14.901733 14.901733 0 0 0 4.377835-10.570883 14.906006 14.906006 0 0 0 -4.377835-10.570882l3.019635-3.019635a19.159981 19.159982 0 0 1 5.629266 13.590517z" stroke-width="4.27103"/>
        <path d="m31.861227 24a13.960988 13.960988 0 0 1 -4.101773 9.902777l-2.200274-2.200273a10.8582 10.8582 0 0 0 3.189927-7.702504 10.861311 10.861311 0 0 0 -3.189927-7.702503l2.200274-2.200274a13.960988 13.960988 0 0 1 4.101773 9.902777z" stroke-width="3.11214"/>
        <path d="m22.747519 9.775528a1.778059 1.778059 0 0 0 -2.887567-1.386886l-8.403107 6.721063h-8.2679747a1.778059 1.778059 0 0 0 -1.7780596 1.77806v14.224472a1.778059 1.778059 0 0 0 1.7780596 1.778058h8.2679747l8.403107 6.721063a1.778059 1.778059 0 0 0 2.887567-1.386886z" stroke-width="3.55611"/>
    </g>
</svg>
