<?xml version="1.0" encoding="UTF-8" standalone="no"?>
<svg
   width="48"
   height="48"
   fill="currentColor"
   viewBox="0 0 48 48"
   version="1.1"
   id="svg15"
   sodipodi:docname="volume-mute.svg"
   inkscape:version="1.2.2 (b0a8486541, 2022-12-01)"
   xmlns:inkscape="http://www.inkscape.org/namespaces/inkscape"
   xmlns:sodipodi="http://sodipodi.sourceforge.net/DTD/sodipodi-0.dtd"
   xmlns="http://www.w3.org/2000/svg"
   xmlns:svg="http://www.w3.org/2000/svg">
  <defs
     id="defs8" />
  <sodipodi:namedview
     id="namedview6"
     pagecolor="#ffffff"
     bordercolor="#000000"
     borderopacity="0.25"
     inkscape:showpageshadow="2"
     inkscape:pageopacity="0.0"
     inkscape:pagecheckerboard="0"
     inkscape:deskcolor="#d1d1d1"
     showgrid="false"
     inkscape:zoom="8.3064348"
     inkscape:cx="23.836941"
     inkscape:cy="32.143754"
     inkscape:window-width="1886"
     inkscape:window-height="1080"
     inkscape:window-x="34"
     inkscape:window-y="0"
     inkscape:window-maximized="1"
     inkscape:current-layer="svg4" />
  <path
     style="fill:#b3b3b3;fill-opacity:1;stroke-width:0.478877"
     d="m 44.828498,15.628551 c 0.69641,0.694652 0.69641,1.822773 0,2.517425 l -5.856213,5.852657 5.856212,5.852656 c 1.678283,1.678282 -0.839141,4.195707 -2.517424,2.517425 l -5.852657,-5.856212 -5.852657,5.856212 c -1.678282,1.67778 -4.195707,-0.839645 -2.517425,-2.517425 l 5.856213,-5.852656 -5.856213,-5.852657 c -1.678785,-1.678283 0.83864,-4.195707 2.517425,-2.517425 l 5.852657,5.856213 5.852657,-5.856213 c 0.694652,-0.696411 1.822772,-0.696411 2.517425,0 z"
     id="path734"
     inkscape:label="path2" />
  <path
     style="fill:#b3b3b3;fill-opacity:1;stroke-width:0.478877"
     d="m 22.945883,8.1758356 c 0.614647,0.296095 1.005636,0.91781 1.006259,1.600058 V 38.221371 c -0.0021,1.488819 -1.723816,2.315742 -2.887216,1.386717 L 12.662844,32.887844 H 4.3958768 c -0.9818752,0 -1.7778423,-0.795967 -1.7778424,-1.777842 V 16.887263 c 10e-8,-0.981875 0.7959672,-1.777842 1.7778424,-1.777842 h 8.2669672 l 8.402082,-6.7202444 c 0.533856,-0.426753 1.265086,-0.50969 1.880957,-0.213341 z"
     id="path" />
</svg>
