<svg height="48" viewBox="0 0 48 48" width="48" xmlns="http://www.w3.org/2000/svg" xmlns:xlink="http://www.w3.org/1999/xlink">
    <linearGradient id="a">
        <stop offset="0"/>
        <stop offset="1" stop-opacity="0"/>
    </linearGradient>
    <linearGradient id="b" gradientUnits="userSpaceOnUse" x1="29.203026" x2="34.121048" xlink:href="#a" y1="24.827356" y2="29.224836"/>
    <linearGradient id="c" gradientUnits="userSpaceOnUse" x1="24.072048" x2="23.959682" y1=".750821" y2="46.056854">
        <stop offset="0" stop-color="#fff"/>
        <stop offset="1" stop-color="#d9d9d9"/>
    </linearGradient>
    <linearGradient id="d" gradientUnits="userSpaceOnUse" x1="15.948756" x2="25.031786" xlink:href="#a" y1="23.618279" y2="33.69899"/>
    <linearGradient id="e" gradientUnits="userSpaceOnUse" x1="21.990562" x2="29.320522" xlink:href="#a" y1="33.780373" y2="41.931858"/>
    <g transform="matrix(1.1885225 0 0 1.1885225 -4.52454 -4.517195)">
        <path d="m24 .83984375c-1.596461 0-2.064708 2.77792875-2.871094 6.58398435-.642312 3.0316409-1.081714 4.7696399-1.472656 5.7871099-.110481.287539-.205699.485187-.285156.61914-.0637.107394.12334.216767-.527344.09961-.543051-.097779-1.159292-1.306862-.925781-4.8554692.097368-1.4796753.308321-2.9547993-.570313-3.5761719-.542019-.3833177-1.028501-.2562258-1.380859-.0878907-.907338.4334699-2.105566 2.124299-4.390625 5.3046878-1.8205785 2.533915-2.8265682 3.793824-3.5214845 4.382812-.4863521.412216-.1121174.433518-1.7675781-.320312-2.114065-.962659-2.6944922-1.223587-3.0605469-1.384766-4.8029627-2.114817-1.5609546 1.901572 1.4101562 5.320313 1.3753321 1.582539 2.3511431 3.139521 2.7617188 4.271484.1562306.43073.1863282.654943.1855469.806641-.7921216.05845-2.1103693.117937-2.1113282 1.367187-.0007423.967204 1.3340267 1.838132 3.4746094 3.763672 2.7467374 2.470801 5.7994284 7.355572 6.2617184 9.337891.0098.04208.01879.08161.02539.117187.0016.0087.0025.01517.0039.02344-1.732179 1.39934-.347284 4.084541 1.519531 4.996093 1.176621.574535 1.371118.984529 1.44336 1.226563.188555.631666.493532 1.431244.736328 1.830078.912447 1.498849 2.217421.462684 2.785156-.505859.115731-.197433.18885-.317651.263672-.439454.127552.04411.269757.09566.453125.16211 1.155741.418841 1.926771.433603 3.058594.02344.21999-.07973.370849-.13201.519531-.18164.01412.03685.02502.06516.04102.107422.983244 2.597848 3.093807 1.764562 3.683593-.78711.135708-.587116.214579-.809296 1.453125-1.414062 1.978318-.965989 3.326294-3.615734 1.564454-5.019532.0015-.0089.0022-.01595.0039-.02539.0065-.03552.01563-.07321.02539-.115235.460183-1.981825 3.516535-6.864777 6.263672-9.335937 2.140584-1.925539 3.475353-2.796469 3.47461-3.763672-.00096-1.249248-1.319207-1.30874-2.111328-1.367187-.000782-.151698.02932-.375911.185546-.806641.410576-1.131963 1.386388-2.688945 2.761719-4.271484 2.971109-3.41874 6.213113-7.435127 1.410156-5.320313-.366053.161179-.946484.422107-3.060546 1.384766-1.65546.75383-1.281226.732529-1.767579.320312-.694916-.588988-1.700904-1.848897-3.521484-4.382812-2.285061-3.1803887-3.483288-4.8712176-4.390625-5.3046878-.352358-.1683353-.83884-.295428-1.380859.087891-.878634.6213739-.66768 2.0964968-.570313 3.5761719.233509 3.5486082-.382732 4.7576902-.925781 4.8554692-.650686.117157-.463641.0078-.527344-.09961-.07946-.133953-.174675-.331602-.285156-.61914-.390933-1.0174753-.830338-2.7554743-1.472647-5.7871152-.806385-3.8060558-1.274633-6.58398435-2.871094-6.58398435z" fill="#070707" transform="matrix(.82372971 0 0 .82372971 4.230489 4.204703)"/>
        <path d="m19.888008 45.875886c-.164231-.269779-.443651-.97646-.620946-1.570401-.1916-.641926-.628302-1.229291-2.02107-1.909368-1.392766-.680078-2.342166-2.556213-1.102316-3.275699s-2.874226-7.807363-6.4520148-11.025729c-3.57779-3.218366-3.860073-3.044222-1.892748-3.206363 1.967326-.162141.528361-3.625856-2.321959-6.905604-2.850319-3.27975-3.058682-3.728475-2.699093-3.570143.359588.158332.935388.416094 3.048532 1.378333 2.113143.96224 2.088479 1.929941 6.6549838-4.425807 4.566505-6.3557481 4.56786-6.0609974 4.324559-2.3636155-.243301 3.6973825.345689 5.7543115 1.84067 6.0234885 1.494981.269175 1.960551.229044 3.570754-7.3709407 1.610204-7.59998424 1.955083-7.59998424 3.565283 0 1.610199 7.5999847 2.075774 7.6401157 3.570755 7.3709407 1.494982-.269177 2.083969-2.326106 1.840669-6.0234885-.243298-3.6973819-.241946-3.9921326 4.324563 2.3636155 4.566509 6.355748 4.541843 5.388047 6.654984 4.425807 2.113142-.962239 2.688937-1.220001 3.048525-1.378333.359589-.158332.151227.290393-2.69909 3.570143-2.850318 3.279748-4.289282 6.743463-2.321957 6.905604 1.967324.162141 1.685052-.012-1.892738 3.206363-3.577792 3.218366-7.699788 10.301654-6.452027 11.025729 1.24776.724076.383709 2.550092-1.149065 3.298527-1.532774.748433-1.832466 1.228589-2.048356 2.162599-.379709 1.64279-1.072008 1.9285-1.558482.64318-.423648-1.119317-.459248-1.129706-1.981034-.578206-.896931.325042-1.354272.320542-2.301297-.02266-1.367871-.495719-1.306039-.518618-2.056429.761515-.391973.668699-.670115.824862-.873656.490513z" fill="url(#c)" transform="matrix(.82372971 0 0 .82372971 4.230489 4.204703)"/>
        <path d="m31.74951 22.608576 4.351929 4.549056-1.867612 1.727822-2.638312 3.8535-4.843049-4.737227z" fill="url(#b)" opacity=".08"/>
        <path d="m16.012936 25.992942 7.027721 6.995632 1.893314-1.764953-8.664315-8.632224z" fill="url(#d)" opacity=".08"/>
        <path d="m19.208021 25.394473c-3.100777-3.416899-3.353138-3.449311-3.353138-1.283683 0 2.165626-.401393 1.816939 2.73478 3.108003 3.136173 1.291065 3.719134 1.59258.618358-1.82432zm10.529613 1.635507c3.28636-1.363323 2.278485-.763744 2.278485-2.923288 0-2.159543-.09614-2.301347-3.312782 1.243546-3.216638 3.544895-2.252062 3.043064 1.034297 1.679742z" fill="#020202" stroke-width="6.285"/>
        <path d="m19.68386 36.522786 4.613404 4.613405 3.972654-1.255871 1.460911-.845791-1.717211-3.588204-3.485684-2.511742z" fill="url(#e)" opacity=".08"/>
        <path d="m23.941561 34.717459c.9501.000805 1.857956 1.466997 3.441621 1.917136s1.128943-.953634.137085-1.592039c-.991857-.638405-2.176954-2.223626-3.578706-2.208844-.392366.0041-.764957.122669-1.120783.308952-1.062363.556171-1.975282 1.716268-2.818864 2.23891-1.126126.697694-.144597 1.753073 1.034488 1.297556 1.179085-.455519 1.870444-1.96255 2.905159-1.961671z" stroke-width="6.285"/>
    </g>
</svg>
