<svg height="48" viewBox="0 0 48 48" width="48" xmlns="http://www.w3.org/2000/svg">
    <path d="m41.448014 39.972795h2.923226q.867834 0 1.461613-.593779.593782-.593781.593782-1.461616v-27.862006q0-.867833-.593782-1.4616136-.593779-.5937805-1.461613-.5937805h-2.923226q-.822158 0-1.415939.5937805-.639454.5937806-.639454 1.4616136v27.862006q0 .867835.639454 1.461616.593781.593779 1.415939.593779zm-19.503405-.41108 16.854229-14.570456q1.187563-1.00486 0-2.009721l-16.854229-14.5704593q-.639456-.5024296-1.050534-.3654033-.411082.1363936-.411082.8678329v30.1457797q0 .730805.411082.913507.411078.1364 1.050534-.41108zm-18.9096324 0 16.8542364-14.570456q1.141887-1.00486 0-2.009721l-16.8542364-14.5704593q-.639455-.5024296-1.0505322-.3654033-.4110794.1363931-.4110794.8678329v30.1457797q0 .730805.4110794.913507.4110772.1364 1.0505322-.41108z" fill="#b3b3b3" stroke-width="1.99553"/>
</svg>
