<svg height="48" viewBox="0 0 48 48" width="48" xmlns="http://www.w3.org/2000/svg">
    <path d="m3.8671728 11.142184h8.4096272q1.234021 0 2.285224.502749 1.096908.457045 1.873885 1.051203.914089.685568 1.691066 1.508249.228522.319931.548454.685567.274225.319931.594159.776976.365635.457045.822678.959795-1.096906 1.32543-2.285222 2.742268-1.142613 1.416841-2.193816 2.650862-1.051204-1.279727-1.371135-1.508249-.50275-.457044-.868386-.868385-.365635-.457044-.776976-.776976-.41134-.319931-1.005499-.502749-.548454-.228523-1.416839-.228523h-6.3072202q-.5484538 0-.9597942-.365637-.365636-.41134-.365636-.959793v-4.341927q0-.548454.365636-.91409.4113404-.41134.9597942-.41134zm23.9491512 14.808255q.411341.548453.685568.91409.274226.319932.365635.411341.319932.365635.594159.776976.319932.41134.776976.776975.50275.365637 1.279727.594159.822679.228522 2.102407.228522h4.707561v-2.559451q0-.548453.274228-.639862.274227-.09142.639862.274225l5.80447 5.804472q.411341.365635.411341.685567 0 .274227-.411341.685568l-5.80447 5.80447q-.365635.365635-.639862.274228-.274228-.137113-.274228-.685569v-2.55945h-7.084195q-1.416841 0-2.513748-.457047-1.051203-.457044-1.828179-1.051203-.868386-.639863-1.553953-1.508247-.274227-.274228-.548453-.639863-.274228-.319931-.639863-.731272-.319931-.457044-.776977-1.0055 1.051203-1.325429 2.193815-2.696563 1.188317-1.416841 2.23952-2.696566zm-23.9491512 3.884882h6.3072202q.868385 0 1.416839-.182811.594159-.228522 1.005499-.548453.411341-.319932.776976-.731272.365636-.457044.868386-.914091.137113-.137112.685567-.776975.594159-.639863 1.41684-1.599657.822681-.959794 1.782475-2.148112 1.005498-1.188316 2.010996-2.376632 2.330927-2.833679 5.210311-6.307221.685567-.822689 1.553953-1.508256.776976-.548454 1.828179-1.005499 1.096907-.502749 2.513748-.502749h7.084195v-2.5594518q0-.5484543.274228-.6398631.274227-.1371129.639862.2742269l5.80447 5.804471q.411341.365636.411341.685567 0 .274227-.411341.639863l-5.80447 5.80447q-.365635.41134-.639862.319931-.274228-.137113-.274228-.685566v-2.559453h-4.707561q-1.279728 0-2.102407.228524-.776977.228522-1.279727.594157-.457044.365637-.776976.776978-.274227.41134-.594159.776975-.137113.137113-.639862.776976-.50275.639865-1.279726 1.599659-.776975.959794-1.73677 2.102406-.959796 1.142613-1.91959 2.330929-2.285223 2.787973-5.164604 6.261514-.776978.868387-1.691066 1.553953-.776977.594159-1.873885 1.051204-1.051203.457046-2.285225.457046h-8.4096264q-.5484538 0-.9597942-.365637-.365636-.411341-.365636-.959794v-4.341926q0-.548456.365636-.914091.4113404-.41134.9597944-.41134z" fill="#bebebe" stroke-width="4.43782"/>
</svg>
