<?xml version="1.0" encoding="UTF-8" standalone="no"?>
<svg
   width="48"
   height="48"
   fill="currentColor"
   viewBox="0 0 48 48"
   version="1.1"
   id="svg7"
   sodipodi:docname="repeat.svg"
   inkscape:version="1.2.2 (b0a8486541, 2022-12-01)"
   xmlns:inkscape="http://www.inkscape.org/namespaces/inkscape"
   xmlns:sodipodi="http://sodipodi.sourceforge.net/DTD/sodipodi-0.dtd"
   xmlns="http://www.w3.org/2000/svg"
   xmlns:svg="http://www.w3.org/2000/svg">
  <defs
     id="defs8" />
  <sodipodi:namedview
     id="namedview6"
     pagecolor="#ffffff"
     bordercolor="#000000"
     borderopacity="0.25"
     inkscape:showpageshadow="2"
     inkscape:pageopacity="0.0"
     inkscape:pagecheckerboard="0"
     inkscape:deskcolor="#d1d1d1"
     showgrid="false"
     inkscape:zoom="5.4551149"
     inkscape:cx="14.665136"
     inkscape:cy="47.111748"
     inkscape:window-width="1886"
     inkscape:window-height="1080"
     inkscape:window-x="34"
     inkscape:window-y="0"
     inkscape:window-maximized="1"
     inkscape:current-layer="svg4" />
  <path
     id="path"
     style="fill:#b3b3b3;fill-opacity:1;stroke-width:4.49517"
     d="m 9.5096415,22.852304 q 0,1.435145 -1.0184918,2.453638 -1.0184915,1.018492 -2.453639,1.018492 -1.4814425,0 -2.4999342,-1.018492 -0.9721967,-1.018493 -0.9721967,-2.453638 v -1.620329 q 0,-2.083278 0.7870163,-3.888786 0.7870164,-1.805508 2.1295737,-3.148065 1.3888523,-1.388853 3.1943603,-2.175869 1.8055079,-0.787017 3.8887859,-0.787017 H 35.666359 V 8.6860092 q 0,-0.555541 0.27777,-0.6481312 0.277772,-0.1388849 0.694427,0.2314755 l 5.786885,5.7868845 q 0.37036,0.416656 0.37036,0.694427 0,0.27777 -0.37036,0.694426 l -5.786885,5.786884 q -0.416655,0.370361 -0.694427,0.27777 -0.27777,-0.138889 -0.27777,-0.694426 V 18.1765 H 12.565116 q -1.296262,0 -2.175868,0.925902 -0.8796065,0.879606 -0.8796065,2.129573 z M 42.008784,21.694926 q 1.435147,0 2.407346,1.018491 1.01849,0.972196 1.01849,2.45364 v 1.574032 q 0,2.083279 -0.787015,3.888787 -0.787017,1.805507 -2.129574,3.19436 -1.342558,1.342557 -3.148066,2.129574 -1.805507,0.787015 -3.888787,0.787015 H 12.333641 v 2.54623 q 0,0.55554 -0.27777,0.694427 -0.277771,0.09259 -0.648132,-0.277772 L 5.6208548,33.916827 q -0.3703605,-0.370362 -0.3703605,-0.648132 0,-0.324066 0.3703605,-0.694427 l 5.7868842,-5.786885 q 0.370361,-0.416655 0.648132,-0.27777 0.27777,0.09259 0.27777,0.648132 v 2.638819 h 23.147537 q 1.249968,0 2.129574,-0.879607 0.925902,-0.879606 0.925902,-2.175868 v -1.574032 q 0,-1.481444 0.972196,-2.45364 1.018493,-1.018491 2.499934,-1.018491 z" />
</svg>
