<svg height="48" viewBox="0 0 48 48" width="48" xmlns="http://www.w3.org/2000/svg">
    <path d="m14.649001 11.192518h22.817352v-2.5149393q0-.548714.274356-.6401664.274357-.1371787.685893.2286303l5.715771 5.7614964q.365809.365809.365809.640166 0 .274357-.365809.685892l-5.715771 5.715772q-.411536.365808-.685893.274355-.274356-.137173-.274356-.685891v-2.606391h-22.817352q-1.280333 0-2.149129.914523-.868798.868797-.868798 2.103404v1.600415q0 .09145-.04572.22864 0 .09145 0 .228639-1.508963-.502989-3.0179265-.502989-1.9204986 0-3.703819.777347-.045726-.22864-.091453-.365809 0-.18289 0-.365808v-1.600435q0-2.057678.7773447-3.840998.777345-1.783321 2.1034036-3.109379 1.3717846-1.371785 3.1551052-2.149129 1.78332-.777345 3.840997-.777345zm3.200831 18.336192h19.433617q1.234606 0 2.103402-.868798.914524-.868798.914524-2.14913v-1.55469q0-1.463236.960249-2.423487 1.005974-1.005977 2.469213-1.005977 1.417511 0 2.37776 1.005977 1.005976.960251 1.005976 2.423487v1.55469q0 2.057677-.777345 3.840998-.777344 1.783321-2.103404 3.155104-1.326058 1.32606-3.109377 2.103403-1.783321.777347-3.840998.777347h-19.936605q.914524-1.920501.914524-4.069628 0-1.463239-.411536-2.789296zm-9.2824101-4.938426q1.6004151 0 2.9722001.640166 1.417511.59444 2.469213 1.646142 1.051701 1.051701 1.646142 2.469211.640166 1.371788.640166 2.972203 0 1.600415-.640166 3.017925-.594441 1.371784-1.646142 2.423486-1.051702 1.051702-2.469213 1.646142-1.371785.594441-2.9722001.594441-1.6004158 0-3.0179266-.594441-1.371785-.59444-2.4234865-1.646142-1.0517018-1.051702-1.6461417-2.423486-.59444015-1.41751-.59444015-3.017925 0-1.600415.59444015-2.972203.5944399-1.41751 1.6461417-2.469211 1.0517015-1.051702 2.4234865-1.646142 1.4175108-.640166 3.0179266-.640166zm1.2346061 3.109379h-1.417511q-.2743568.777344-1.0974277 1.463236-.7773448.548715-1.5089633.868798v1.600415q.6401662-.22864 1.1888801-.548713.5944402-.320083 1.0974279-.823072v6.676019h1.737594z" fill="#b3b3b3" stroke-width="4.03604"/>
</svg>
