<svg height="48" viewBox="0 0 48 48" width="48" xmlns="http://www.w3.org/2000/svg">
    <path d="m6.5519853 39.972796h-2.9232272q-.8678328 0-1.4616134-.593776-.5937805-.59378-.5937805-1.461618v-27.862008q0-.8678328.5937805-1.4616134.5937806-.5937806 1.4616134-.5937806h2.9232272q.8221572 0 1.4159378.5937806.6394561.5937806.6394561 1.4616134v27.862008q0 .867838-.6394561 1.461618-.5937806.593776-1.4159378.593776zm19.5034067-.411077-16.8542328-14.570459q-1.1875608-1.00486 0-2.009719l16.8542328-14.570462q.639458-.5024296 1.050535-.3654035.411079.1363945.411079.8678331v30.1457814q0 .730805-.411079.913506-.411077.136395-1.050535-.411077zm18.909636 0-16.85424-14.570459q-1.141888-1.00486 0-2.009719l16.85424-14.570462q.639452-.5024296 1.050527-.3654035.411081.1363925.411081.8678331v30.1457814q0 .730805-.411081.913506-.411075.136395-1.050527-.411077z" fill="#bebebe" stroke-width="1.99553"/>
</svg>
