<svg height="48" viewBox="0 0 48 48" width="48" xmlns="http://www.w3.org/2000/svg">
    <path d="m23.999994 2.4782509a3.9130445 3.9129576 0 0 0 -3.91388 3.9137933v.332329a3.2282617 3.2281901 0 0 1 -1.955569 2.955257h-.156555a3.2282617 3.2281901 0 0 1 -3.562318-.645432l-.115355-.118097a3.9130445 3.9129576 0 0 0 -5.5371116 0 3.9130445 3.9129576 0 0 0 0 5.5369878l.118111.115355a3.2282617 3.2281901 0 0 1 .645449 3.562239 3.2282617 3.2281901 0 0 1 -2.955324 2.112075h-.175781a3.9130445 3.9129576 0 0 0 -3.9138798 3.913793 3.9130445 3.9129576 0 0 0 3.9138798 3.913793h.332335a3.2282617 3.2281901 0 0 1 2.955324 1.955524 3.2282617 3.2281901 0 0 1 -.645449 3.562239l-.118111.115355a3.9130445 3.9129576 0 0 0 0 5.536988 3.9130445 3.9129576 0 0 0 5.5371116 0l.115354-.118097a3.2282617 3.2281901 0 0 1 3.562318-.645434 3.2282617 3.2281901 0 0 1 2.112124 2.955257v.17578a3.9130445 3.9129576 0 0 0 3.913881 3.913793 3.9130445 3.9129576 0 0 0 3.913879-3.913793v-.332329a3.2282617 3.2281901 0 0 1 1.955569-2.955258 3.2282617 3.2281901 0 0 1 3.562318.64543l.115354.118097a3.9130445 3.9129576 0 0 0 5.537112 0 3.9130445 3.9129576 0 0 0 0-5.536988l-.118097-.115354a3.2282617 3.2281901 0 0 1 -.645446-3.562241 3.2282617 3.2281901 0 0 1 2.955323-1.955524h.175781a3.9130445 3.9129576 0 0 0 3.913878-3.913796 3.9130445 3.9129576 0 0 0 -3.913883-3.913793h-.332337a3.2282617 3.2281901 0 0 1 -2.955322-1.955522v-.156552a3.2282617 3.2281901 0 0 1 .645447-3.562237l.118097-.115355a3.9130445 3.9129576 0 0 0 0-5.5369878 3.9130445 3.9129576 0 0 0 -5.53711 0l-.115355.118097a3.2282617 3.2281901 0 0 1 -3.562312.645436 3.2282617 3.2281901 0 0 1 -1.955569-2.955258v-.175777a3.9130445 3.9129576 0 0 0 -3.913881-3.9137933zm0 15.6524271a5.8695667 5.8694365 0 0 1 .461426.01922 5.8695667 5.8694365 0 0 1 .455932.05219 5.8695667 5.8694365 0 0 1 .453189.09063 5.8695667 5.8694365 0 0 1 .442198.126337 5.8695667 5.8694365 0 0 1 .433957.159299 5.8695667 5.8694365 0 0 1 .417482.192255 5.8695667 5.8694365 0 0 1 .403747.225217 5.8695667 5.8694365 0 0 1 .381779.255425 5.8695667 5.8694365 0 0 1 .362547.285639 5.8695667 5.8694365 0 0 1 .337829.313103 5.8695667 5.8694365 0 0 1 .313112.337824 5.8695667 5.8694365 0 0 1 .285643.362538 5.8695667 5.8694365 0 0 1 .255432.381767 5.8695667 5.8694365 0 0 1 .225222.40374 5.8695667 5.8694365 0 0 1 .192258.417472 5.8695667 5.8694365 0 0 1 .159303.433949 5.8695667 5.8694365 0 0 1 .126337.44219 5.8695667 5.8694365 0 0 1 .09063.453177 5.8695667 5.8694365 0 0 1 .05217.455921 5.8695667 5.8694365 0 0 1 .01922.461418 5.8695667 5.8694365 0 0 1 -.148318 1.307344 5.8695667 5.8694365 0 0 1 -.433958 1.238682 5.8695667 5.8694365 0 0 1 -.697635 1.11234 5.8695667 5.8694365 0 0 1 -.93109.931071 5.8695667 5.8694365 0 0 1 -1.112365.697616 5.8695667 5.8694365 0 0 1 -1.23871.433949 5.8695667 5.8694365 0 0 1 -1.307361.148318 5.8695667 5.8694365 0 0 1 -1.307374-.148313 5.8695667 5.8694365 0 0 1 -1.238709-.433949 5.8695667 5.8694365 0 0 1 -1.112366-.697617 5.8695667 5.8694365 0 0 1 -.931091-.93107 5.8695667 5.8694365 0 0 1 -.697632-1.112342 5.8695667 5.8694365 0 0 1 -.433961-1.238681 5.8695667 5.8694365 0 0 1 -.148314-1.307344 5.8695667 5.8694365 0 0 1 .148314-1.307344 5.8695667 5.8694365 0 0 1 .433961-1.238683 5.8695667 5.8694365 0 0 1 .697632-1.112341 5.8695667 5.8694365 0 0 1 .931091-.931071 5.8695667 5.8694365 0 0 1 1.112366-.697617 5.8695667 5.8694365 0 0 1 1.238709-.43395 5.8695667 5.8694365 0 0 1 1.307374-.148312z" fill="#b3b3b3" stroke="#b3b3b3" stroke-width="1.9565"/>
</svg>
