<?xml version="1.0" encoding="UTF-8" standalone="no"?>
<!-- Created with Inkscape (http://www.inkscape.org/) -->

<svg
   version="1.1"
   id="svg2"
   width="1024"
   height="1024"
   viewBox="0 0 1024 1024"
   sodipodi:docname="sc-fooyin-round.svg"
   inkscape:version="1.2 (dc2aedaf03, 2022-05-15)"
   xmlns:inkscape="http://www.inkscape.org/namespaces/inkscape"
   xmlns:sodipodi="http://sodipodi.sourceforge.net/DTD/sodipodi-0.dtd"
   xmlns="http://www.w3.org/2000/svg"
   xmlns:svg="http://www.w3.org/2000/svg">
  <defs
     id="defs6">
    <filter
       y="-0.013145177"
       height="1.0262904"
       inkscape:menu-tooltip="Darkens the edge with an inner blur and adds a flexible glow"
       inkscape:menu="Shadows and Glows"
       inkscape:label="Dark and Glow"
       style="color-interpolation-filters:sRGB;"
       id="filter968"
       x="-0.018201893"
       width="1.0364038">
      <feGaussianBlur
         stdDeviation="5"
         result="result6"
         id="feGaussianBlur958" />
      <feComposite
         result="result8"
         in="SourceGraphic"
         operator="atop"
         in2="result6"
         id="feComposite960" />
      <feComposite
         result="result9"
         operator="over"
         in2="SourceAlpha"
         in="result8"
         id="feComposite962" />
      <feColorMatrix
         values="1 0 0 0 0 0 1 0 0 0 0 0 1 0 0 0 0 0 1 0 "
         result="result10"
         id="feColorMatrix964" />
      <feBlend
         in="result10"
         mode="normal"
         in2="result6"
         id="feBlend966" />
    </filter>
    <filter
       style="color-interpolation-filters:sRGB;"
       inkscape:label="Drop Shadow"
       id="filter3062"
       x="-0.50922345"
       y="-0.36775474"
       width="2.0184469"
       height="1.7355095">
      <feFlood
         flood-opacity="0.498039"
         flood-color="rgb(74,74,74)"
         result="flood"
         id="feFlood3052" />
      <feComposite
         in="flood"
         in2="SourceGraphic"
         operator="in"
         result="composite1"
         id="feComposite3054" />
      <feGaussianBlur
         in="composite1"
         stdDeviation="139.882"
         result="blur"
         id="feGaussianBlur3056" />
      <feOffset
         dx="0"
         dy="0"
         result="offset"
         id="feOffset3058" />
      <feComposite
         in="SourceGraphic"
         in2="offset"
         operator="over"
         result="composite2"
         id="feComposite3060" />
    </filter>
  </defs>
  <sodipodi:namedview
     id="namedview4"
     pagecolor="#ffffff"
     bordercolor="#000000"
     borderopacity="0.25"
     inkscape:showpageshadow="2"
     inkscape:pageopacity="0.0"
     inkscape:pagecheckerboard="0"
     inkscape:deskcolor="#d1d1d1"
     showgrid="false"
     inkscape:zoom="0.52606417"
     inkscape:cx="204.34769"
     inkscape:cy="618.74581"
     inkscape:window-width="1910"
     inkscape:window-height="1014"
     inkscape:window-x="5"
     inkscape:window-y="37"
     inkscape:window-maximized="1"
     inkscape:current-layer="g8" />
  <g
     inkscape:groupmode="layer"
     inkscape:label="Image"
     id="g8">
    <circle
       style="fill:#b3b3b3;fill-opacity:1;stroke-width:0"
       id="path225"
       cx="512"
       cy="512"
       r="462.07999" />
    <path
       style="fill:#f1f1f1;fill-opacity:1;stroke-width:7.62993;filter:url(#filter3062)"
       d="m 448.31917,964.97186 c -2.54339,-5.50343 -6.87067,-19.91961 -9.61636,-32.03588 -2.96723,-13.09519 -15.66101,-28.89218 -31.29952,-38.95077 -27.49996,-17.68832 -36.29784,-52.12665 -17.07114,-66.82366 19.17543,-14.65775 -45.68345,-160.65676 -99.91986,-224.92287 -56.57927,-67.04202 -54.61667,-62.66215 -29.31224,-65.40923 35.62997,-3.8682 23.76569,-50.34715 -35.95928,-140.87308 -28.5586,-43.28663 -47.36845,-76.06012 -41.79981,-72.83025 5.56897,3.23002 26.81406,15.88295 47.21143,28.11775 45.05348,27.02419 33.60931,37.04975 103.06316,-90.28567 71.98553,-131.97677 71.12609,-131.35804 66.97276,-48.21732 -3.38249,67.71112 8.30402,118.08671 28.50574,122.87806 26.10266,6.19093 33.23936,-13.21493 55.29888,-150.36584 27.81368,-172.925685 27.40064,-172.925685 55.21415,0 22.05955,137.15091 29.19624,156.55677 55.2989,150.36584 20.20173,-4.79135 31.88821,-55.16694 28.50573,-122.87806 -4.15328,-83.14072 -5.01271,-83.75945 66.97282,48.21732 69.45396,127.33542 58.00975,117.30986 103.06315,90.28567 20.39739,-12.2348 41.64246,-24.88773 47.21132,-28.11775 5.56876,-3.22987 -13.24109,29.54362 -41.79976,72.83025 -59.72485,90.52593 -71.58918,137.00488 -35.95925,140.87308 25.30444,2.74708 27.26705,-1.63279 -29.3121,65.40923 -54.23657,64.26611 -119.09538,210.26512 -99.92003,224.92287 19.47181,14.88425 10.41062,49.14739 -17.79512,67.28933 -19.26919,12.3939 -28.37869,25.06302 -31.72209,44.11664 -5.88041,33.51262 -16.60178,39.34106 -24.13561,13.12075 -6.56086,-22.83385 -7.11219,-23.04579 -30.67951,-11.79529 -13.89042,6.6308 -20.97307,6.53899 -35.63927,-0.46225 -21.1837,-10.11257 -20.22614,-10.57972 -31.84712,15.53478 -6.07034,13.64133 -10.37782,16.82703 -13.52997,10.00635 z M 425.8816,555.62409 c -59.42991,-86.26551 -61.00436,-87.05944 -61.00436,-30.76362 0,47.50313 0,47.50313 49.75444,74.48366 64.35973,34.90047 64.64621,33.78718 11.24992,-43.72004 z m 191.56754,39.19509 c 41.45298,-22.65211 41.45298,-22.65211 41.45298,-70.05689 0,-56.1026 -1.65983,-55.28185 -60.27018,29.80172 -58.43163,84.82396 -59.30871,82.94742 18.8172,40.25517 z M 511.99993,779.05045 c 17.28537,0.0193 35.31284,35.16448 62.61415,45.94439 30.31727,10.79335 14.76506,-27.69718 2.49403,-38.15339 -23.81909,-20.14266 -39.60581,-53.28934 -65.10818,-52.93519 -28.45103,0.39511 -49.77486,43.18705 -71.67485,61.05979 -19.07578,15.56789 -2.30342,41.84604 18.82065,31.09606 21.77863,-11.08308 34.02941,-47.03272 52.8542,-47.01166 z"
       id="path200"
       transform="matrix(1.0612194,0,0,0.80562935,-31.344265,99.517737)"
       sodipodi:nodetypes="sccsccssccsscsssssscsssssssssssssssssssccasss" />
  </g>
</svg>
