<?xml version="1.0" encoding="UTF-8" standalone="no"?>
<svg
   width="48"
   height="48"
   fill="currentColor"
   viewBox="0 0 48 48"
   version="1.1"
   id="svg6"
   sodipodi:docname="script-literal.svg"
   inkscape:version="1.3 (0e150ed6c4, 2023-07-21)"
   xmlns:inkscape="http://www.inkscape.org/namespaces/inkscape"
   xmlns:sodipodi="http://sodipodi.sourceforge.net/DTD/sodipodi-0.dtd"
   xmlns="http://www.w3.org/2000/svg"
   xmlns:svg="http://www.w3.org/2000/svg">
  <defs
     id="defs8" />
  <sodipodi:namedview
     id="namedview6"
     pagecolor="#ffffff"
     bordercolor="#000000"
     borderopacity="0.25"
     inkscape:showpageshadow="2"
     inkscape:pageopacity="0.0"
     inkscape:pagecheckerboard="0"
     inkscape:deskcolor="#d1d1d1"
     showgrid="false"
     inkscape:zoom="6.3111814"
     inkscape:cx="28.837707"
     inkscape:cy="34.145746"
     inkscape:window-width="1880"
     inkscape:window-height="1020"
     inkscape:window-x="20"
     inkscape:window-y="40"
     inkscape:window-maximized="1"
     inkscape:current-layer="svg6" />
  <path
     d="M 9.5656666,17.071795 H 14.20803 a 4.642364,4.642364 0 0 1 4.642364,4.642358 v 11.605915 h -6.963545 a 4.642364,4.642364 0 1 1 0,-9.284725 h 6.963545"
     id="path2"
     style="fill:none;stroke:#b3b3b3;stroke-width:4.64238;stroke-opacity:1" />
  <path
     d="m 28.135124,10.108248 v 23.21182"
     id="path3"
     style="fill:none;stroke:#b3b3b3;stroke-width:4.64238;stroke-opacity:1" />
  <path
     d="m 28.135124,17.071795 m 0,4.642358 a 4.642364,4.642364 0 0 1 4.642363,-4.642358 h 2.32118 a 4.642364,4.642364 0 0 1 4.642365,4.642358 v 6.963552 a 4.642364,4.642364 0 0 1 -4.642365,4.642363 h -2.32118 a 4.642364,4.642364 0 0 1 -4.642363,-4.642363 z"
     id="path4"
     style="fill:none;stroke:#b3b3b3;stroke-width:4.64238;stroke-opacity:1" />
</svg>
