<?xml version="1.0" encoding="UTF-8" standalone="no"?>
<svg
   width="48"
   height="48"
   fill="currentColor"
   viewBox="0 0 48 48"
   version="1.1"
   id="svg18"
   sodipodi:docname="category-filters.svg"
   inkscape:version="1.2.2 (b0a8486541, 2022-12-01)"
   xmlns:inkscape="http://www.inkscape.org/namespaces/inkscape"
   xmlns:sodipodi="http://sodipodi.sourceforge.net/DTD/sodipodi-0.dtd"
   xmlns="http://www.w3.org/2000/svg"
   xmlns:svg="http://www.w3.org/2000/svg">
  <defs
     id="defs160" />
  <sodipodi:namedview
     id="namedview158"
     pagecolor="#ffffff"
     bordercolor="#000000"
     borderopacity="0.25"
     inkscape:showpageshadow="2"
     inkscape:pageopacity="0.0"
     inkscape:pagecheckerboard="0"
     inkscape:deskcolor="#d1d1d1"
     showgrid="false"
     inkscape:zoom="12.039347"
     inkscape:cx="27.659307"
     inkscape:cy="29.071344"
     inkscape:window-width="1886"
     inkscape:window-height="1080"
     inkscape:window-x="34"
     inkscape:window-y="0"
     inkscape:window-maximized="1"
     inkscape:current-layer="svg18" />
  <path
     d="m 21.815457,38.705034 -6.447244,2.149087 V 22.586924 L 5.7403247,11.996256 A 4.2981622,4.2981622 0 0 1 4.6228116,9.1057442 V 4.3197427 H 39.008103 v 4.6678045 a 4.2981622,4.2981622 0 0 1 -1.259352,3.0387918 l -9.486049,9.486049 v 3.223622"
     id="path140"
     style="fill:none;stroke:#464546;stroke-width:4.29812;stroke-opacity:1" />
  <path
     d="m 36.861178,36.555963 m -4.298157,0 a 4.2981626,4.2981626 0 1 0 8.596316,0 4.2981626,4.2981626 0 1 0 -8.596316,0"
     id="path142"
     style="fill:none;stroke:#464546;stroke-width:4.29812;stroke-opacity:1" />
  <path
     d="m 36.861178,29.034169 v 3.223622"
     id="path144"
     style="stroke:#464546;stroke-width:4.29812;stroke-opacity:1" />
  <path
     d="m 36.861178,40.854121 v 3.223622"
     id="path146"
     style="stroke:#464546;stroke-width:4.29812;stroke-opacity:1" />
  <path
     d="m 43.375041,32.795066 -2.791664,1.61181"
     id="path148"
     style="stroke:#464546;stroke-width:4.29812;stroke-opacity:1" />
  <path
     d="m 33.141111,38.705034 -2.793796,1.611811"
     id="path150"
     style="stroke:#464546;stroke-width:4.29812;stroke-opacity:1" />
  <path
     d="m 30.347315,32.795066 2.793796,1.61181"
     id="path152"
     style="fill:none;fill-opacity:1;stroke:#464546;stroke-width:4.29812;stroke-opacity:1" />
  <path
     d="m 40.583392,38.705034 2.793796,1.611811"
     id="path154"
     style="stroke:#464546;stroke-width:4.29812;stroke-opacity:1" />
</svg>
