<?xml version="1.0" encoding="UTF-8" standalone="no"?>
<svg
   width="48"
   height="48"
   fill="currentColor"
   viewBox="0 0 48 48"
   version="1.1"
   id="svg18"
   sodipodi:docname="quick-setup.svg"
   inkscape:version="1.2.2 (b0a8486541, 2022-12-01)"
   xmlns:inkscape="http://www.inkscape.org/namespaces/inkscape"
   xmlns:sodipodi="http://sodipodi.sourceforge.net/DTD/sodipodi-0.dtd"
   xmlns="http://www.w3.org/2000/svg"
   xmlns:svg="http://www.w3.org/2000/svg">
  <defs
     id="defs20" />
  <sodipodi:namedview
     id="namedview18"
     pagecolor="#ffffff"
     bordercolor="#000000"
     borderopacity="0.25"
     inkscape:showpageshadow="2"
     inkscape:pageopacity="0.0"
     inkscape:pagecheckerboard="0"
     inkscape:deskcolor="#d1d1d1"
     showgrid="false"
     inkscape:zoom="11.569359"
     inkscape:cx="24.720471"
     inkscape:cy="21.868109"
     inkscape:window-width="1886"
     inkscape:window-height="1080"
     inkscape:window-x="34"
     inkscape:window-y="0"
     inkscape:window-maximized="1"
     inkscape:current-layer="svg16" />
  <line
     x1="32.000057"
     y1="33.999985"
     x2="29.00005"
     y2="36.999992"
     id="line14"
     style="stroke-width:4;fill:none;stroke:#b3b3b3;stroke-opacity:1"
     inkscape:label="path6" />
  <polyline
     points="16 12 21 17 17 21 12 16"
     id="polyline12"
     transform="matrix(2.0000043,0,0,2.0000043,-1.2235624e-5,-9.0214376e-5)"
     inkscape:label="path5"
     style="fill:none;stroke:#b3b3b3;stroke-opacity:1" />
  <line
     x1="14.000018"
     y1="15.999942"
     x2="11.000011"
     y2="18.999949"
     id="line10"
     style="stroke-width:4;fill:none;stroke:#b3b3b3;stroke-opacity:1"
     inkscape:label="path4" />
  <polyline
     points="12 8 7 3 3 7 8 12"
     id="polyline8"
     transform="matrix(2.0000043,0,0,2.0000043,-1.2235624e-5,-9.0214376e-5)"
     inkscape:label="path3"
     style="fill:none;stroke:#b3b3b3;stroke-opacity:1" />
  <line
     x1="29.00005"
     y1="10.999933"
     x2="37.000069"
     y2="18.999949"
     id="line6"
     style="stroke-width:4;fill:none;stroke:#b3b3b3;stroke-opacity:1"
     inkscape:label="path2" />
  <path
     d="M 6.0000005,41.999999 H 14.000018 L 40.000072,15.999944 A 5.6568663,5.6568663 0 0 0 32.000056,7.9999268 L 6.0000005,33.999982 v 8.000017"
     id="path4"
     style="stroke-width:4;fill:none;stroke:#b3b3b3;stroke-opacity:1"
     inkscape:label="path1" />
</svg>
