<svg height="132" viewBox="0 0 350 132" width="350" xmlns="http://www.w3.org/2000/svg" xmlns:xlink="http://www.w3.org/1999/xlink">
    <linearGradient id="a" gradientUnits="userSpaceOnUse" x1="512" x2="512" y1="73" y2="1450">
        <stop offset="0" stop-color="#fff000"/>
        <stop offset=".38" stop-color="#ffb300"/>
        <stop offset=".7" stop-color="#ff7800"/>
        <stop offset="1" stop-color="#ff2d16"/>
    </linearGradient>
    <g transform="translate(12.807 -10.7552)">
        <path d="m290 493c-8 0-14-6-14-14v-100c0-169 137-306 306-306h217c20 0 36 16 36 36v144c0 21-16 37-36 37h-147c-69 0-125 56-125 125v64c0 8-6 14-14 14zm0 30h223c8 0 14 6 14 14v526c0 8-6 14-14 14h-223c-8 0-14-6-14-14v-526c0-8 6-14 14-14zm281 137h204c20 0 37 17 37 37v140c0 21-17 38-37 38h-204c-8 0-14-6-14-14v-187c0-8 6-14 14-14zm-281 447h223c8 0 14 6 14 14v291c0 21-17 38-38 38h-175c-21 0-38-17-38-38v-291c0-8 6-14 14-14z" fill="url(#a)" transform="matrix(.0703125 0 0 .0703125 0 20)"/>
        <path d="m98.918 109.29q-7.009 0-12.298-3.139-5.289-3.139-8.256-8.643-2.924-5.547-2.924-12.728 0-7.267 3.01-12.771 3.01-5.547 8.299-8.643 5.289-3.096 12.169-3.096 7.009 0 12.298 3.139 5.332 3.139 8.299 8.686 2.967 5.504 2.967 12.685 0 7.224-3.01 12.771-2.967 5.504-8.299 8.643-5.289 3.096-12.255 3.096zm0-10.922q5.633 0 8.385-3.784 2.795-3.827 2.795-9.804 0-6.192-2.838-9.89-2.795-3.698-8.342-3.698-3.827 0-6.278 1.72-2.451 1.72-3.655 4.773-1.161 3.053-1.161 7.095 0 6.235 2.795 9.933 2.838 3.655 8.299 3.655zm53.92207 10.922q-7.009 0-12.298-3.139-5.289-3.139-8.256-8.643-2.924-5.547-2.924-12.728 0-7.267 3.01-12.771 3.01-5.547 8.299-8.643 5.289-3.096 12.169-3.096 7.009 0 12.298 3.139 5.332 3.139 8.299 8.686 2.967 5.504 2.967 12.685 0 7.224-3.01 12.771-2.967 5.504-8.299 8.643-5.289 3.096-12.255 3.096zm0-10.922q5.633 0 8.385-3.784 2.795-3.827 2.795-9.804 0-6.192-2.838-9.89-2.795-3.698-8.342-3.698-3.827 0-6.278 1.72-2.451 1.72-3.655 4.773-1.161 3.053-1.161 7.095 0 6.235 2.795 9.933 2.838 3.655 8.299 3.655zm37.23803 30.272 8.944-24.596.172 7.224-20.21-49.708h12.126l13.588 35.174h-2.752l13.502-35.174h11.696l-26.23 67.08zm43.94597-73.53v-10.32h11.696v10.32zm0 52.89v-46.44h11.696v46.44zm56.24397 0v-21.93q0-1.591-.172-4.042-.172-2.494-1.075-4.988-.903-2.494-2.967-4.171-2.021-1.677-5.762-1.677-1.505 0-3.225.473-1.72.473-3.225 1.849-1.505 1.333-2.494 3.956-.946 2.623-.946 6.966l-6.708-3.182q0-5.504 2.236-10.32 2.236-4.816 6.708-7.783 4.515-2.967 11.352-2.967 5.461 0 8.901 1.849 3.44 1.849 5.332 4.687 1.935 2.838 2.752 5.934.817 3.053.989 5.59.172 2.537.172 3.698v26.058zm-31.734 0v-46.44h10.406v15.394h1.462v31.046z" fill="#f3f4f5"/>
        <path d="m234.01909 44.790112h11.701866v10.321469h-11.701866z" fill="#fff000"/>
    </g>
</svg>
