<?xml version="1.0" encoding="UTF-8" standalone="no"?>
<svg
   width="48"
   height="48"
   fill="currentColor"
   viewBox="0 0 48 48"
   version="1.1"
   id="svg4"
   sodipodi:docname="repeat-once.svg"
   inkscape:version="1.2.2 (b0a8486541, 2022-12-01)"
   xmlns:inkscape="http://www.inkscape.org/namespaces/inkscape"
   xmlns:sodipodi="http://sodipodi.sourceforge.net/DTD/sodipodi-0.dtd"
   xmlns="http://www.w3.org/2000/svg"
   xmlns:svg="http://www.w3.org/2000/svg">
  <defs
     id="defs8" />
  <sodipodi:namedview
     id="namedview6"
     pagecolor="#ffffff"
     bordercolor="#000000"
     borderopacity="0.25"
     inkscape:showpageshadow="2"
     inkscape:pageopacity="0.0"
     inkscape:pagecheckerboard="0"
     inkscape:deskcolor="#d1d1d1"
     showgrid="false"
     inkscape:zoom="5.4551149"
     inkscape:cx="14.665136"
     inkscape:cy="47.111748"
     inkscape:window-width="1886"
     inkscape:window-height="1080"
     inkscape:window-x="34"
     inkscape:window-y="0"
     inkscape:window-maximized="1"
     inkscape:current-layer="svg4" />
  <path
     id="path"
     style="fill:#b3b3b3;fill-opacity:1;stroke-width:4.03604"
     d="M 14.649001,11.192518 H 37.466353 V 8.6775787 q 0,-0.548714 0.274356,-0.6401664 0.274357,-0.1371787 0.685893,0.2286303 l 5.715771,5.7614964 q 0.365809,0.365809 0.365809,0.640166 0,0.274357 -0.365809,0.685892 l -5.715771,5.715772 q -0.411536,0.365808 -0.685893,0.274355 -0.274356,-0.137173 -0.274356,-0.685891 V 18.051442 H 14.649001 q -1.280333,0 -2.149129,0.914523 -0.868798,0.868797 -0.868798,2.103404 v 1.600415 q 0,0.09145 -0.04572,0.22864 0,0.09145 0,0.228639 -1.508963,-0.502989 -3.0179265,-0.502989 -1.9204986,0 -3.703819,0.777347 -0.045726,-0.22864 -0.091453,-0.365809 0,-0.18289 0,-0.365808 v -1.600435 q 0,-2.057678 0.7773447,-3.840998 0.777345,-1.783321 2.1034036,-3.109379 1.3717846,-1.371785 3.1551052,-2.149129 1.78332,-0.777345 3.840997,-0.777345 z m 3.200831,18.336192 h 19.433617 q 1.234606,0 2.103402,-0.868798 0.914524,-0.868798 0.914524,-2.14913 v -1.55469 q 0,-1.463236 0.960249,-2.423487 1.005974,-1.005977 2.469213,-1.005977 1.417511,0 2.37776,1.005977 1.005976,0.960251 1.005976,2.423487 v 1.55469 q 0,2.057677 -0.777345,3.840998 -0.777344,1.783321 -2.103404,3.155104 -1.326058,1.32606 -3.109377,2.103403 -1.783321,0.777347 -3.840998,0.777347 H 17.346844 q 0.914524,-1.920501 0.914524,-4.069628 0,-1.463239 -0.411536,-2.789296 z M 8.5674219,24.590284 q 1.6004151,0 2.9722001,0.640166 1.417511,0.59444 2.469213,1.646142 1.051701,1.051701 1.646142,2.469211 0.640166,1.371788 0.640166,2.972203 0,1.600415 -0.640166,3.017925 -0.594441,1.371784 -1.646142,2.423486 -1.051702,1.051702 -2.469213,1.646142 Q 10.167837,40 8.5674219,40 6.9670061,40 5.5494953,39.405559 4.1777103,38.811119 3.1260088,37.759417 2.074307,36.707715 1.4798671,35.335931 0.88542695,33.918421 0.88542695,32.318006 q 0,-1.600415 0.59444015,-2.972203 Q 2.074307,27.928293 3.1260088,26.876592 4.1777103,25.82489 5.5494953,25.23045 6.9670061,24.590284 8.5674219,24.590284 Z M 9.802028,27.699663 H 8.384517 Q 8.1101602,28.477007 7.2870893,29.162899 6.5097445,29.711614 5.778126,30.031697 v 1.600415 q 0.6401662,-0.22864 1.1888801,-0.548713 0.5944402,-0.320083 1.0974279,-0.823072 v 6.676019 h 1.737594 z" />
</svg>
